<svg version="1.2" xmlns="http://www.w3.org/2000/svg" viewBox="0 0 953 1510" width="953" height="1300">
	<title>sdadadaasda</title>
	<style>
		.s0 { fill: #ff5730 } 
	</style>
	<g>
		<path class="s0" d="m365.5 1030.1c-1.8-0.7-3.7-1.2-5.7-1.2-5 0-10.3 2.5-13.3 8.8-0.4 0.6-0.6 1.2-0.9 1.8-0.4 0.6-0.6 1.2-0.9 1.8-0.4 0.6-0.7 1.1-1 1.8-0.4 0.6-0.6 1.1-0.9 1.8-0.4 0.6-0.7 1.1-1 1.8-0.3 0.6-0.6 1.1-0.9 1.7-0.4 0.7-0.7 1.2-1 1.8-0.3 0.7-0.6 1.2-0.9 1.8-0.4 0.6-0.7 1.2-1 1.8-0.3 0.6-0.6 1.2-0.9 1.8-0.4 0.6-0.7 1.2-0.9 1.8-0.4 0.6-0.7 1.2-1 1.8-0.4 0.6-0.7 1.2-0.9 1.8-0.4 0.6-0.7 1.2-1 1.8-0.4 0.6-0.7 1.2-0.9 1.8-0.4 0.6-0.7 1.2-1 1.8-0.4 0.6-0.6 1.2-0.9 1.8-0.4 0.6-0.7 1.2-1 1.8-0.4 0.6-0.6 1.2-0.9 1.8-0.4 0.6-0.7 1.2-1 1.8-0.4 0.6-0.6 1.2-0.9 1.8-0.4 0.6-0.7 1.2-1 1.8-0.3 0.6-0.6 1.1-0.9 1.8-0.4 0.6-0.7 1.1-1 1.8-0.3 0.6-0.6 1.1-0.9 1.8-0.4 0.6-0.7 1.1-1 1.7-0.3 0.7-0.6 1.2-0.9 1.8-0.4 0.7-0.7 1.2-0.9 1.8-0.4 0.7-0.7 1.2-1 1.8-0.3 0.6-0.7 1.2-0.9 1.8-0.4 0.6-0.7 1.2-1 1.8-0.3 0.6-0.6 1.2-0.9 1.8-0.4 0.6-0.7 1.2-1 1.8-0.3 0.6-0.6 1.2-0.9 1.8-0.4 0.6-0.7 1.2-1 1.8-0.4 0.6-0.6 1.2-0.9 1.8-0.4 0.6-0.7 1.2-1 1.8-0.3 0.6-0.6 1.2-0.9 1.8-0.4 0.6-0.7 1.2-1 1.8-0.3 0.6-0.6 1.2-0.9 1.8-0.4 0.6-0.7 1.2-1 1.8-0.3 0.6-0.6 1.2-0.9 1.8-0.3 0.6-0.7 1.2-0.9 1.8-0.4 0.6-0.7 1.1-1 1.8-0.3 0.6-0.7 1.1-0.9 1.8-0.4 0.6-0.7 1.1-1 1.8-0.3 0.6-0.7 1.1-0.9 1.7-0.4 0.7-0.7 1.2-1 1.8-0.3 0.7-0.6 1.2-0.9 1.8-0.4 0.7-0.7 1.2-1 1.8-0.4 0.6-0.6 1.2-0.9 1.8-0.4 0.6-0.7 1.2-1 1.8-0.3 0.6-0.6 1.2-0.9 1.8-0.3 0.6-0.7 1.2-1 1.8-0.3 0.6-0.6 1.2-0.9 1.8-0.3 0.6-0.7 1.2-1 1.8-0.3 0.6-0.6 1.2-0.9 1.8-0.3 0.6-0.7 1.2-1 1.8-0.3 0.6-0.6 1.2-0.9 1.8-0.3 0.6-0.7 1.2-0.9 1.8-0.4 0.6-0.7 1.2-1 1.8-0.3 0.6-0.7 1.2-0.9 1.8-0.4 0.6-0.7 1.2-1 1.8-0.3 0.6-0.6 1.2-0.9 1.8-0.4 0.6-0.7 1.1-1 1.8-0.3 0.6-0.6 1.1-0.9 1.8-0.4 0.6-0.7 1.1-1 1.8-0.3 0.6-0.6 1.1-0.9 1.7-0.4 0.7-0.7 1.2-1 1.8-0.3 0.7-0.6 1.2-0.9 1.8-0.3 0.7-0.7 1.2-1 1.8-0.3 0.6-0.6 1.2-0.9 1.8-0.3 0.6-0.7 1.2-1 1.8-0.3 0.6-0.6 1.2-0.9 1.8-0.3 0.6-0.7 1.2-0.9 1.8-0.4 0.6-0.7 1.2-1 1.8-0.3 0.6-0.7 1.2-0.9 1.8-0.4 0.6-0.7 1.2-1 1.8-0.3 0.6-0.7 1.2-0.9 1.8-0.4 0.6-0.7 1.2-1 1.8-0.3 0.6-0.6 1.2-0.9 1.8-0.4 0.6-0.7 1.2-1 1.8-0.3 0.6-0.6 1.2-0.9 1.8-0.4 0.6-0.7 1.2-1 1.8-0.3 0.6-0.6 1.2-0.9 1.8-0.3 0.6-0.7 1.1-1 1.8-0.3 0.6-0.6 1.1-0.9 1.8-0.3 0.6-0.7 1.1-1 1.8-0.3 0.6-0.6 1.1-0.9 1.7-0.3 0.7-0.7 1.2-1 1.8-0.3 0.7-0.6 1.2-0.9 1.8-0.3 0.7-0.7 1.2-0.9 1.8-0.4 0.6-0.7 1.2-1 1.8-0.3 0.6-0.7 1.2-0.9 1.8-0.4 0.6-0.7 1.2-1 1.8-0.3 0.6-0.6 1.2-0.9 1.8-0.4 0.6-0.7 1.2-1 1.8-0.3 0.6-0.6 1.2-0.9 1.8-0.4 0.6-0.7 1.2-1 1.8-0.3 0.6-0.6 1.2-0.9 1.8-0.4 0.6-0.7 1.2-1 1.8-0.3 0.6-0.6 1.2-0.9 1.8-0.3 0.6-0.7 1.2-1 1.8-0.3 0.6-0.6 1.2-0.9 1.8-0.3 0.6-0.7 1.2-1 1.8-0.3 0.6-0.6 1.2-0.9 1.8-0.3 0.6-0.6 1.1-0.9 1.8-0.4 0.6-0.7 1.1-1 1.8-0.3 0.6-0.6 1.1-0.9 1.8-0.4 0.6-0.7 1.1-1 1.7-0.3 0.7-0.7 1.2-0.9 1.8-0.4 0.7-0.6 1.2-1 1.8-0.3 0.6-0.6 1.2-0.9 1.8-0.4 0.6-0.7 1.2-1 1.8-0.3 0.6-0.6 1.2-0.9 1.8-0.4 0.6-0.6 1.2-1 1.8-0.3 0.6-0.6 1.2-0.9 1.8-5.6 10.6-11.1 21.2-16.6 31.9q-12.3 23.5-24.6 47c-5 9.8-10.2 19.7-15.2 29.2-8 15.1-16.2 30.8-23.9 46.3-5.3 13.3-5.2 27.8 0.4 41 5.6 13.2 16 23.4 29.3 28.8 14.3 5.9 30.5 5.1 44.6-2.1 14.2-7.2 24.4-20.1 27.9-35.4 15.6-52.3 31.1-104.6 46.6-156.8 0.2-0.7 0.4-1.3 0.6-2 0.2-0.6 0.4-1.2 0.6-1.9q0.3-1 0.5-1.9c0.3-0.7 0.5-1.3 0.6-2q0.4-1 0.6-1.9 0.3-1 0.5-2 0.4-1 0.6-1.9 0.4-1 0.6-1.9 0.3-1 0.5-2 0.4-1 0.6-1.9c0.3-0.7 0.4-1.3 0.6-1.9q0.3-1 0.6-2 0.3-1 0.5-1.9 0.4-1 0.6-1.9 0.3-1.1 0.6-2 0.3-1 0.5-1.9 0.4-1 0.6-2 0.3-1 0.6-1.9 0.3-1 0.5-1.9c0.3-0.7 0.5-1.3 0.6-2q0.4-1 0.6-1.9 0.3-1 0.5-1.9 0.4-1 0.6-2 0.4-1 0.6-1.9 0.3-1 0.5-2 0.4-1 0.6-1.9 0.4-1 0.6-1.9 0.3-1 0.5-2 0.4-1 0.6-1.9 0.4-1 0.6-1.9 0.3-1 0.5-2 0.4-1 0.6-1.9 0.4-1 0.6-2 0.3-1 0.6-1.9 0.3-1 0.5-1.9 0.4-1 0.6-2 0.3-1 0.6-1.9 0.3-1 0.5-1.9 0.4-1 0.6-2 0.3-1 0.6-1.9 0.3-1 0.5-1.9 0.4-1 0.6-2 0.4-1 0.6-1.9 0.3-1 0.5-2 0.4-1 0.6-1.9 0.4-1 0.6-1.9 0.3-1 0.5-2 0.4-1 0.6-1.9 0.4-1 0.6-1.9 0.3-1 0.5-2 0.4-1 0.6-1.9 0.4-1 0.6-2 0.3-1 0.5-1.9 0.4-1 0.6-1.9 0.4-1 0.6-2 0.3-1 0.6-1.9 0.3-1 0.5-1.9 0.4-1 0.6-2 0.3-1 0.6-1.9 0.3-1 0.5-1.9 0.4-1 0.6-2 0.3-1 0.6-1.9 0.3-1 0.5-2 0.4-1 0.6-1.9 0.3-1 0.6-1.9 0.3-1 0.5-2 0.4-1 0.6-1.9 0.4-1 0.6-1.9 0.3-1 0.5-2 0.4-1 0.6-1.9 0.4-1 0.6-2 0.3-1 0.5-1.9 0.4-1 0.6-1.9 0.4-1 0.6-2 0.3-1 0.5-1.9 0.4-1 0.6-1.9 0.4-1 0.6-2 0.3-1 0.5-1.9 0.4-1 0.6-1.9 0.4-1.1 0.6-2 0.3-1 0.6-1.9 0.3-1 0.5-2c0.3-0.7 0.4-1.3 0.6-1.9 0.2-0.7 0.4-1.3 0.6-1.9 0.2-0.7 0.4-1.4 0.5-2 0.3-0.7 0.5-1.3 0.6-1.9 0.2-0.7 0.4-1.3 0.6-1.9 0.2-0.8 0.4-1.4 0.5-2 0.3-0.7 0.5-1.3 0.6-1.9 0.2-0.7 0.4-1.3 0.6-2 0.2-0.7 0.4-1.3 0.5-1.9 0.3-0.7 0.5-1.3 0.6-1.9 0.2-0.7 0.4-1.4 0.6-2 0.2-0.7 0.4-1.3 0.5-1.9 0.3-0.7 0.5-1.3 0.6-1.9 0.2-0.7 0.4-1.4 0.6-2 0.2-0.7 0.4-1.3 0.5-1.9 0.3-0.7 0.5-1.3 0.6-2 0.2-0.7 0.4-1.3 0.6-1.9 0.2-0.7 0.4-1.3 0.5-1.9 0.3-0.7 0.5-1.3 0.6-2 0.3-0.7 0.4-1.3 0.6-1.9 0.2-0.7 0.4-1.3 0.6-1.9 0.2-0.7 0.4-1.4 0.5-2 0.3-0.7 0.4-1.3 0.6-1.9 0.2-0.7 0.4-1.3 0.6-1.9 0.2-0.8 0.4-1.4 0.5-2 0.3-0.7 0.4-1.3 0.6-1.9 0.2-0.7 0.4-1.3 0.6-2 0.2-0.7 0.4-1.3 0.5-1.9 0.3-0.7 0.5-1.3 0.6-1.9 0.2-0.7 0.4-1.4 0.6-2 0.2-0.7 0.4-1.3 0.5-1.9 0.3-0.7 0.5-1.3 0.6-1.9 0.2-0.8 0.4-1.4 0.6-2 0.2-0.7 0.4-1.3 0.5-1.9 0.3-0.7 0.5-1.3 0.6-2 0.2-0.7 0.4-1.3 0.6-1.9 3.1-9.3-2.2-16.3-8.4-18.8z"/>
		<path class="s0" d="m447.5 1260.1v-0.5c0-0.5 0.1-1 0-1.4v-0.6c0-0.4 0.1-0.9 0.1-1.4v-0.5c0-0.5 0.1-0.9 0-1.5v-0.5c0-0.5 0.1-0.9 0.1-1.4v-0.5c0-0.5 0-1 0-1.4v-0.6c0-0.4 0.1-0.9 0-1.4v-0.4c0-0.5 0.1-1 0.1-1.5v-0.4c0-0.6 0.1-1.1 0-1.6v-0.4c0-0.5 0.1-1 0.1-1.5v-0.6c0-0.4 0.1-0.9 0-1.4v-0.4c0-0.5 0.1-1 0.1-1.5v-0.4c0-0.6 0.1-1 0-1.5v-0.5c0-0.5 0.1-1 0.1-1.5v-0.3c0-0.5 0.1-1.1 0-1.6v-0.4c0-0.5 0.1-1.1 0.1-1.6v-0.4c0-0.6 0.1-1 0-1.5v-0.5c0-0.5 0.1-1 0.1-1.5v-0.3c0-0.5 0.1-1.1 0-1.6v-0.3c0-0.6 0.1-1.1 0.1-1.7v-0.3c0-0.5 0.1-1.1 0-1.6v-0.4c0-0.5 0.1-1.1 0.1-1.6v-0.3c0-0.5 0.1-1.1 0-1.6v-0.3c0-0.6 0.1-1.1 0.1-1.6v-0.4c0-0.5 0-1.1 0-1.6v-0.2c0-0.6 0.1-1.2 0-1.8v-0.2c0-0.6 0.1-1.2 0.1-1.8v-0.2c0-0.6 0.1-1.2 0-1.7v-0.2c0-0.6 0.1-1.2 0.1-1.8v-0.2c0-0.6 0.1-1.2 0-1.8v-0.2c0-0.6 0.1-1.2 0.1-1.7v-0.3c0-0.5 0.1-1.2 0-1.7 0-0.7 0.1-1.3 0.1-2 0-0.7 0.1-1.3 0-2 0-0.8 0.1-1.4 0.1-2 0-0.7 0.1-1.3 0-2 0-0.7 0.1-1.3 0.1-1.9 0-0.8 0.1-1.4 0-2 0-0.7 0.1-1.4 0.1-2 0-0.7 0.1-1.3 0-2 0-0.7 0.1-1.3 0.1-1.9 0-0.7 0.1-1.4 0-2 0-0.7 0.1-1.3 0.1-2 0-0.7 0-1.3 0-2 0-0.7 0.1-1.3 0-2 0-0.7 0.1-1.3 0.1-2 0-0.7 0.1-1.3 0-1.9 0-0.8 0.1-1.4 0.1-2 0-0.7 0.1-1.3 0-2 0-0.7 0.1-1.3 0.1-2 0-0.7 0.1-1.3 0-2 0-0.7 0.1-1.3 0.1-2 0-0.7 0.1-1.3 0-1.9 0-0.8 0.1-1.4 0.1-2 0-0.7 0.1-1.4 0-2 0-0.7 0.1-1.3 0.1-2 0-0.7 0.1-1.3 0-2 0-0.7 0.1-1.3 0.1-2 0-0.7 0.1-1.3 0-2 0-0.7 0.1-1.3 0.1-1.9 0-0.7 0.1-1.3 0-2 0-0.7 0.1-1.3 0.1-2 0-0.7 0-1.3 0-1.9 0-0.8 0.1-1.4 0-2 0.1-0.7 0.1-1.3 0.1-2 0-0.7 0.1-1.3 0-2 0.1-0.7 0.1-1.3 0.1-2 0-0.7 0.1-1.3 0-2 0.1-0.7 0.1-1.3 0.1-1.9 0-0.8 0.1-1.4 0-2 0.1-0.7 0.1-1.4 0.1-2 0-0.7 0.1-1.3 0-2 0.1-0.7 0.1-1.3 0.1-2 0-0.7 0.1-1.3 0-2 0.1-0.7 0.1-1.3 0.1-2 0-0.7 0.1-1.3 0-1.9 0.1-0.7 0.1-1.4 0.1-2 0-0.7 0.1-1.3 0-2 0.1-0.7 0.1-1.3 0.1-2 0-0.7 0.1-1.3 0-2 0.1-0.7 0.1-1.3 0.1-2 0-0.7 0-1.3 0-1.9 0-0.8 0.1-1.4 0-2 0.1-0.7 0.1-1.3 0.1-2 0-0.7 0.1-1.3 0-2 0.1-0.7 0.1-1.3 0.1-2 0-0.7 0.1-1.3 0-2 0.1-0.7 0.1-1.3 0.1-1.9 0-0.8 0.1-1.4 0-2 0.1-0.7 0.1-1.4 0.1-2 0-0.7 0.1-1.3 0-2 0.1-0.7 0.1-1.4 0.1-2 0-0.7 0.1-1.4 0-2 0.1-0.7 0.1-1.3 0.1-2 0-0.7 0.1-1.3 0-1.9 0.1-0.7 0.1-1.4 0.1-2 0-0.7 0.1-1.4 0-2 0.1-0.7 0.1-1.4 0.1-2 0-0.7 0.1-1.4 0-2 0.1-0.7 0.1-1.3 0.1-2 0.6-6.5-3.2-12.7-9.2-15.2-1.8-0.7-3.6-1.1-5.5-1.1-2.5 0-5 0.7-7.4 2-4 2.3-6.7 6.2-7.3 10.6-0.2 0.7-0.3 1.3-0.4 1.9-0.2 0.7-0.4 1.3-0.5 1.9-0.1 0.7-0.3 1.4-0.4 2-0.2 0.7-0.3 1.3-0.4 1.9-0.2 0.7-0.3 1.3-0.4 1.9-0.2 0.8-0.4 1.4-0.5 2-0.1 0.7-0.3 1.3-0.4 1.9-0.2 0.7-0.3 1.3-0.4 2-0.2 0.7-0.3 1.3-0.4 1.9-0.2 0.7-0.4 1.3-0.5 1.9-0.2 0.7-0.3 1.4-0.4 2-0.2 0.7-0.3 1.3-0.4 1.9-0.2 0.7-0.3 1.3-0.4 1.9-0.2 0.8-0.4 1.4-0.5 2-0.2 0.7-0.3 1.3-0.4 1.9-0.2 0.7-0.3 1.3-0.4 2-0.2 0.7-0.3 1.3-0.4 1.9-0.2 0.7-0.4 1.3-0.5 1.9-0.2 0.7-0.3 1.4-0.4 2-0.2 0.7-0.3 1.3-0.4 1.9-0.2 0.7-0.4 1.3-0.4 1.9-0.2 0.7-0.4 1.4-0.5 2-0.2 0.7-0.3 1.3-0.4 1.9-0.2 0.7-0.3 1.3-0.4 2-0.2 0.7-0.4 1.3-0.5 1.9-0.1 0.7-0.3 1.3-0.4 1.9-0.2 0.7-0.3 1.3-0.4 2-0.2 0.7-0.3 1.3-0.4 1.9-0.2 0.7-0.4 1.3-0.5 1.9-0.1 0.7-0.3 1.4-0.4 2-0.2 0.7-0.3 1.3-0.4 1.9-0.2 0.7-0.3 1.3-0.4 1.9-0.2 0.8-0.4 1.4-0.5 2-0.2 0.7-0.3 1.3-0.4 1.9-0.2 0.7-0.3 1.3-0.4 2q-0.3 1-0.4 1.9c-0.2 0.7-0.4 1.3-0.5 1.9-0.2 0.7-0.3 1.4-0.4 2q-0.3 1-0.4 1.9c-0.2 0.7-0.3 1.3-0.4 1.9-0.2 0.8-0.4 1.4-0.5 2-0.2 0.7-0.3 1.3-0.4 1.9-0.2 0.7-0.3 1.3-0.4 2q-0.3 1-0.4 1.9-0.3 1-0.5 1.9-0.3 1-0.4 2-0.3 1-0.4 1.9c-0.2 0.7-0.4 1.3-0.5 1.9-0.1 0.7-0.3 1.4-0.4 2q-0.3 1-0.4 1.9-0.3 1-0.4 1.9-0.3 1.1-0.5 2-0.2 1-0.4 1.9c-0.2 0.7-0.3 1.3-0.4 2-0.2 0.7-0.3 1.3-0.4 1.9q-0.3 1-0.5 1.9-0.2 1-0.4 2-0.3 1-0.4 1.9-0.3 1-0.4 1.9-0.3 1-0.5 2-0.2 1-0.4 1.9-0.3 1-0.4 2-0.3 1-0.4 1.9-0.3 1-0.5 1.9-0.3 1-0.4 2c-0.1 0.6-0.3 1.3-0.4 1.9-0.2 0.7-0.4 1.3-0.4 1.9-0.2 0.7-0.4 1.3-0.5 2q-0.3 1-0.4 1.9c-0.1 0.7-0.3 1.3-0.4 1.9-0.2 0.7-0.4 1.4-0.5 2-0.1 0.6-0.3 1.3-0.4 1.9-0.1 0.7-0.3 1.3-0.4 2-0.1 0.6-0.3 1.3-0.4 1.9-0.2 0.7-0.4 1.3-0.5 1.9-0.1 0.7-0.3 1.4-0.4 2-0.1 0.6-0.3 1.3-0.4 1.9-0.2 0.7-0.3 1.3-0.4 1.9-0.2 0.7-0.4 1.4-0.5 2-0.1 0.6-0.3 1.3-0.4 1.9-0.1 0.7-0.3 1.3-0.4 2-0.2 0.6-0.3 1.3-0.4 1.9-0.2 0.7-0.4 1.4-0.5 1.9-0.2 0.8-0.3 1.4-0.4 2-0.2 0.7-0.3 1.3-0.4 1.9-0.2 0.7-0.3 1.3-0.4 1.9-0.2 0.7-0.4 1.4-0.5 2-0.2 0.7-0.3 1.3-0.4 1.9-0.2 0.8-0.3 1.4-0.4 2-0.2 0.7-0.4 1.3-0.4 1.9-0.2 0.7-0.4 1.3-0.5 1.9-0.2 0.7-0.3 1.3-0.4 2v0.2q-0.3 0.9-0.4 1.7c-0.2 0.8-0.4 1.4-0.5 1.9-0.1 0.8-0.3 1.4-0.4 2-0.2 0.7-0.3 1.3-0.4 1.9-0.2 0.7-0.3 1.3-0.4 1.9v0.3q-0.3 0.8-0.5 1.6l-0.1 0.4c-0.1 0.5-0.2 1.1-0.3 1.6v0.3q-0.3 0.8-0.4 1.6c-0.2 0.8-0.3 1.4-0.4 1.9-0.2 0.8-0.4 1.4-0.5 2v0.2q-0.2 0.9-0.4 1.7v0.2q-0.3 0.9-0.4 1.7l-0.1 0.3c-0.2 0.5-0.2 1.1-0.3 1.6l-0.1 0.3c-0.2 0.6-0.3 1.1-0.4 1.6v0.3c-0.2 0.6-0.3 1.1-0.4 1.7l-0.1 0.4c-0.1 0.5-0.2 1-0.3 1.5v0.2q-0.3 0.9-0.4 1.7l-0.1 0.3c-0.2 0.5-0.3 1.1-0.4 1.6l-0.1 0.4c-0.1 0.5-0.2 1.1-0.3 1.6l-0.1 0.3c-0.1 0.5-0.2 1.1-0.3 1.6l-0.1 0.4c-0.1 0.6-0.3 1-0.3 1.5l-0.1 0.4q-0.2 0.8-0.4 1.5l-0.1 0.4q-0.2 0.8-0.3 1.6l-0.1 0.4c-0.1 0.5-0.2 1-0.3 1.5l-0.1 0.3q-0.2 0.8-0.4 1.6v0.3c-0.2 0.6-0.3 1.1-0.4 1.6l-0.1 0.5c-0.1 0.5-0.2 1-0.3 1.5l-0.1 0.4c-0.1 0.5-0.2 1-0.3 1.5l-0.1 0.3c-0.2 0.6-0.3 1.1-0.4 1.6l-0.1 0.4c0 0.5-0.2 1.1-0.3 1.5l-0.1 0.4c-0.1 0.5-0.2 1.1-0.3 1.5l-0.1 0.4c-0.1 0.5-0.2 1-0.3 1.5l-10.9 50.3q-10.4 47.8-20.7 95.6c-5.8 24.1 7.2 49.5 30.4 58.8 15 6.4 32.6 4.6 46.9-4.9 14.5-9.6 23-25.1 22.9-41.5 1.1-32.9 2.1-65.7 3.1-98.6l1.7-52.7q0-0.7 0-1.4v-0.6c0-0.4 0.1-0.9 0-1.3v-0.7c0.1-0.4 0.1-0.9 0.1-1.3v-0.6c0-0.5 0.1-0.9 0-1.4v-0.7c0.1-0.4 0.1-0.9 0.1-1.3v-0.7c0-0.4 0.1-0.8 0-1.3v-0.6c0.1-0.5 0.1-0.9 0.1-1.4v-0.6c0-0.5 0.1-0.9 0-1.3v-0.7c0.1-0.4 0.1-0.9 0.1-1.3v-0.6c0-0.5 0.1-0.9 0-1.4v-0.7c0.1-0.4 0.1-0.8 0.1-1.3v-0.6c0-0.5 0.1-0.9 0-1.4v-0.6c0.1-0.5 0.1-0.9 0.1-1.4v-0.6c0-0.5 0.1-0.9 0-1.4v-0.6c0.1-0.4 0.1-0.9 0.1-1.3v-0.6c0-0.4 0-0.9 0-1.4v-0.5c0-0.5 0-1 0-1.4v-0.6c0.1-0.5 0.1-0.9 0.1-1.4v-0.6c0-0.4 0.1-0.9 0-1.3v-0.6c0-0.4 0.1-0.9 0.1-1.4v-0.5c0-0.5 0.1-0.9 0-1.4v-0.5c0.1-0.5 0.1-1 0.1-1.4v-0.7c0-0.4 0.1-0.9 0-1.3v-0.5c0-0.5 0.1-1 0.1-1.5v-0.5c0-0.5 0.1-0.9 0-1.4z"/>
		<path class="s0" d="m516 1269.2v0.4c0 0.5 0 0.9 0.1 1.4v0.4q0 0.7 0.1 1.4v0.5c0 0.5 0 0.9 0.1 1.4v0.4c0 0.5 0 1 0.1 1.5v0.4c0 0.5 0 1 0.1 1.5v0.3c0 0.5 0 1 0.1 1.5v0.3c0 0.6 0 1 0 1.5v0.3q2.1 40.8 4.2 81.4l0.4 8c0.4 9.7 0.9 19.3 1.4 29q0.4 8 0.8 16c0.3 5 0.5 9.8 0.8 14.7 0.6 18.9 12.4 35.7 29.9 42.7 16.8 7 35.9 3.6 49.8-8.8 13.9-12.6 19.4-31.2 14.2-48.7-6.4-27.7-12.9-55.3-19.4-82.9-4.8-20.6-9.6-41.2-14.4-61.8-0.1-0.6-0.3-1.1-0.4-1.8q-0.2-0.9-0.5-1.7-0.2-1-0.4-1.8c-0.1-0.7-0.3-1.2-0.4-1.8-0.1-0.7-0.3-1.3-0.4-1.8q-0.2-1-0.5-1.8-0.2-0.9-0.4-1.8-0.2-1-0.4-1.8-0.2-1-0.4-1.8c-0.2-0.6-0.3-1.2-0.5-1.8-0.1-0.6-0.2-1.2-0.4-1.8q-0.2-0.9-0.4-1.8-0.2-0.9-0.4-1.8-0.3-0.9-0.5-1.7-0.2-1-0.4-1.9-0.2-0.9-0.4-1.8-0.2-0.9-0.4-1.8c-0.2-0.6-0.3-1.2-0.5-1.8q-0.2-0.9-0.4-1.8-0.2-0.9-0.4-1.8-0.2-0.9-0.5-1.8-0.2-0.9-0.4-1.8-0.2-0.9-0.4-1.7-0.2-1-0.4-1.8-0.2-1-0.5-1.8c-0.1-0.7-0.2-1.3-0.4-1.8q-0.2-1-0.4-1.8-0.2-1-0.4-1.8-0.2-1-0.5-1.8-0.2-1-0.4-1.8-0.2-0.9-0.4-1.8-0.2-0.9-0.4-1.8c-0.2-0.7-0.3-1.2-0.5-1.8-0.1-0.7-0.2-1.2-0.4-1.8q-0.2-0.9-0.4-1.8-0.2-0.9-0.4-1.8c-0.2-0.6-0.3-1.2-0.5-1.8-0.1-0.6-0.3-1.2-0.4-1.8q-0.2-0.9-0.4-1.8-0.2-0.9-0.4-1.8-0.3-0.9-0.5-1.8-0.2-0.9-0.4-1.8-0.2-0.9-0.4-1.8-0.2-0.9-0.5-1.7-0.2-1-0.4-1.8c-0.1-0.7-0.3-1.3-0.4-1.8q-0.2-1-0.4-1.8-0.2-1-0.5-1.8-0.2-1-0.4-1.8-0.2-1-0.4-1.8-0.2-1-0.4-1.8-0.2-0.9-0.5-1.8-0.2-0.9-0.4-1.8-0.2-0.9-0.4-1.8-0.2-0.9-0.4-1.8-0.3-0.9-0.5-1.8-0.2-0.9-0.4-1.8-0.2-0.9-0.4-1.8c-0.2-0.6-0.3-1.2-0.4-1.8q-0.3-0.9-0.5-1.8-0.2-0.9-0.4-1.8-0.2-0.9-0.4-1.8-0.2-0.9-0.4-1.8-0.3-0.9-0.5-1.8-0.2-0.9-0.4-1.7c-0.1-0.7-0.3-1.3-0.4-1.8-0.2-0.7-0.3-1.3-0.5-1.8-0.1-0.7-0.2-1.3-0.4-1.8-0.1-0.7-0.3-1.3-0.4-1.8-0.1-0.7-0.3-1.3-0.4-1.8-0.2-0.7-0.3-1.3-0.5-1.8q-0.2-1-0.4-1.8-0.2-0.9-0.4-1.8-0.2-0.9-0.4-1.8c-0.2-0.7-0.3-1.2-0.5-1.8-0.1-0.7-0.2-1.2-0.4-1.8-0.1-0.7-0.3-1.2-0.4-1.8-0.2-0.6-0.3-1.2-0.4-1.8-0.2-0.6-0.3-1.2-0.5-1.8-0.1-0.6-0.2-1.2-0.4-1.8-0.1-0.6-0.2-1.2-0.4-1.8-0.2-0.6-0.3-1.2-0.4-1.8-0.2-0.6-0.3-1.2-0.5-1.8-0.1-0.6-0.2-1.2-0.4-1.8-0.1-0.6-0.2-1.2-0.4-1.8-0.2-0.6-0.3-1.2-0.4-1.7-0.2-0.7-0.3-1.3-0.5-1.8-0.1-0.7-0.2-1.3-0.4-1.8-0.1-0.7-0.2-1.3-0.4-1.8-0.2-0.7-0.3-1.3-0.5-1.8-0.1-0.7-0.2-1.3-0.4-1.8-0.1-0.7-0.2-1.2-0.4-1.8-0.1-0.7-0.2-1.2-0.4-1.8-0.2-0.7-0.3-1.2-0.5-1.8-0.1-0.7-0.2-1.2-0.4-1.8-0.1-0.7-0.2-1.2-0.4-1.8-0.1-0.7-0.2-1.2-0.4-1.8-0.2-0.7-0.3-1.2-0.5-1.8-0.1-0.6-0.2-1.2-0.4-1.8-0.1-0.6-0.2-1.2-0.4-1.8-0.2-0.6-0.2-1.2-0.4-1.8-0.2-0.6-0.3-1.2-0.5-1.8-0.1-0.6-0.2-1.2-0.4-1.8-0.1-0.6-0.2-1.2-0.4-1.8-0.2-0.6-0.3-1.2-0.4-1.8-0.2-0.6-0.3-1.2-0.5-1.7-0.1-0.7-0.2-1.3-0.4-1.8-0.1-0.7-0.2-1.3-0.4-1.8-0.2-0.7-0.3-1.3-0.4-1.8-0.2-0.7-0.3-1.3-0.5-1.8-0.1-0.7-0.2-1.3-0.4-1.8-0.1-0.7-0.2-1.3-0.4-1.8-0.2-0.7-0.3-1.2-0.5-1.8-0.1-0.7-0.2-1.2-0.4-1.8-0.1-0.7-0.2-1.2-0.4-1.8-0.1-0.7-0.2-1.2-0.4-1.8-0.2-0.7-0.3-1.2-0.5-1.8-0.1-0.7-0.2-1.2-0.4-1.8-1.7-8.6-8.4-12.2-14.5-12.2q-1.1 0-2.1 0.1c-6.7 1-13.5 6.4-12.7 16.3 0 0.6 0 1.2 0.1 1.8 0 0.6 0 1.2 0.1 1.8 0 0.7 0 1.3 0.1 1.8 0 0.7 0 1.3 0.1 1.9 0 0.6 0 1.2 0.1 1.8 0 0.7 0 1.3 0.1 1.9 0 0.6 0 1.2 0.1 1.8 0 0.7 0 1.2 0.1 1.9 0 0.6 0 1.2 0.1 1.8 0 0.7 0 1.2 0.1 1.8 0 0.7 0 1.3 0.1 1.9 0 0.6 0 1.2 0.1 1.8 0 0.7 0 1.3 0 1.9 0 0.6 0 1.2 0.1 1.8 0 0.7 0 1.2 0.1 1.9 0 0.6 0 1.2 0.1 1.8 0 0.7 0 1.2 0.1 1.8 0 0.7 0 1.3 0.1 1.9 0 0.6 0 1.2 0.1 1.8 0 0.7 0 1.3 0.1 1.9 0 0.6 0 1.2 0.1 1.8 0 0.7 0 1.2 0.1 1.9 0 0.6 0 1.2 0.1 1.8 0 0.7 0 1.2 0.1 1.8 0 0.7 0 1.2 0.1 1.8 0 0.7 0 1.3 0.1 1.9 0 0.6 0 1.2 0.1 1.8 0 0.7 0 1.2 0.1 1.9 0 0.6 0 1.2 0.1 1.8 0 0.7 0 1.2 0.1 1.8 0 0.7 0 1.2 0.1 1.8 0 0.7 0 1.3 0 1.9 0 0.6 0 1.2 0.1 1.8 0 0.7 0 1.3 0.1 1.9 0 0.6 0 1.2 0.1 1.8 0 0.7 0 1.2 0.1 1.9 0 0.6 0 1.2 0.1 1.8 0 0.7 0 1.2 0.1 1.8 0 0.7 0 1.3 0.1 1.9 0 0.6 0 1.2 0.1 1.8 0 0.7 0 1.3 0.1 1.9 0 0.6 0 1.2 0.1 1.8 0 0.7 0 1.2 0.1 1.8 0 0.7 0 1.3 0.1 1.9 0 0.7 0 1.2 0.1 1.8 0 0.7 0 1.3 0.1 1.9 0 0.6 0 1.2 0.1 1.8 0 0.7 0 1.2 0.1 1.9 0 0.6 0 1.2 0.1 1.8 0 0.7 0 1.2 0 1.8 0 0.7 0 1.3 0.1 1.9 0 0.6 0 1.2 0.1 1.8 0 0.7 0 1.3 0.1 1.9 0 0.6 0 1.2 0.1 1.8 0 0.7 0 1.2 0.1 1.9 0 0.6 0 1.2 0.1 1.8 0 0.7 0 1.2 0.1 1.8 0 0.7 0 1.3 0.1 1.9 0 0.6 0 1.2 0.1 1.8 0 0.7 0 1.3 0.1 1.9 0 0.6 0 1.2 0.1 1.8 0 0.7 0 1.2 0.1 1.9 0 0.6 0 1.2 0.1 1.8 0 0.7 0 1.2 0.1 1.8 0 0.7 0 1.3 0.1 1.9 0 0.6 0 1.2 0.1 1.8 0 0.7 0 1.3 0.1 1.9 0 0.6 0 1.2 0.1 1.8 0 0.7 0 1.2 0 1.9 0 0.6 0 1.2 0.1 1.8 0 0.7 0 1.2 0.1 1.8 0 0.7 0 1.3 0.1 1.8 0 0.7 0 1.3 0.1 1.9 0 0.6 0.1 1.2 0.1 1.8 0 0.6 0.1 1.2 0.1 1.8 0 0.7 0 1.2 0.1 1.8 0 0.7 0.1 1.2 0.1 1.9 0 0.6 0.1 1.2 0.1 1.8 0 0.7 0 1.2 0.1 1.8 0 0.7 0 1.3 0.1 1.9 0 0.6 0 1.2 0.1 1.8 0 0.7 0 1.2 0.1 1.8 0 0.7 0 1.2 0.1 1.9 0 0.6 0 1.2 0.1 1.8 0 0.7 0 1.2 0.1 1.8 0 0.7 0 1.3 0.1 1.9 0 0.6 0 1.1 0.1 1.6v0.2c0 0.5 0 1.1 0 1.6v0.3q0.1 0.7 0.1 1.5v0.2c0 0.6 0.1 1.1 0.1 1.7v0.2c0 0.5 0.1 1 0.1 1.6v0.2c0 0.6 0.1 1.1 0.1 1.7v0.1c0 0.6 0.1 1.2 0.1 1.7v0.2c0 0.6 0.1 1.1 0.1 1.6v0.3c0 0.5 0.1 1.1 0.1 1.6v0.2c0 0.5 0.1 1.1 0.1 1.6v0.2c0 0.6 0.1 1.1 0.1 1.7v0.2c0 0.5 0 1 0.1 1.5v0.3c0 0.5 0 1 0.1 1.5v0.3c0 0.6 0 1.1 0.1 1.6v0.3c0 0.5 0 1 0.1 1.5v0.3c0 0.5 0 1 0.1 1.5v0.4q0 0.8 0.1 1.5v0.3c0 0.5 0 1.1 0.1 1.5v0.4c0 0.5 0 1 0.1 1.5v0.3c0 0.5 0 1 0.1 1.5v0.3c0 0.6 0 1.1 0 1.6v0.3c0 0.5 0.1 1 0.1 1.4v0.4q0.1 0.8 0.1 1.4v0.4c0 0.5 0.1 1 0.1 1.4v0.4c0 0.5 0.1 1 0.1 1.4v0.5c0 0.5 0.1 0.9 0.1 1.4z"/>
		<path class="s0" d="m765.5 1319.6c-13.4-24.7-26.7-49.4-40-74.2l-34.8-64.4q-0.3-0.7-0.7-1.4c-0.3-0.5-0.6-1-0.8-1.4-0.2-0.5-0.5-1-0.7-1.4-0.3-0.6-0.6-1-0.8-1.5-0.2-0.5-0.5-1-0.8-1.4-0.2-0.5-0.5-1-0.7-1.4-0.3-0.5-0.5-1-0.8-1.4-0.2-0.5-0.5-1-0.7-1.4-0.3-0.6-0.6-1-0.8-1.4-0.2-0.6-0.5-1-0.7-1.5-0.3-0.5-0.6-1-0.8-1.4-0.2-0.5-0.5-1-0.8-1.4-0.2-0.5-0.5-1-0.7-1.4-0.3-0.5-0.5-1-0.8-1.4-0.2-0.6-0.5-1-0.7-1.5-0.3-0.5-0.6-0.9-0.8-1.4-0.2-0.5-0.5-1-0.8-1.4-0.2-0.5-0.5-1-0.7-1.4-0.2-0.5-0.5-1-0.8-1.4-0.2-0.5-0.5-1-0.7-1.4-0.3-0.6-0.5-1-0.8-1.5-0.2-0.5-0.5-0.9-0.7-1.4-0.3-0.5-0.6-1-0.8-1.4-0.2-0.5-0.5-1-0.8-1.4-0.2-0.5-0.5-1-0.7-1.4-0.2-0.5-0.5-1-0.8-1.4-0.2-0.6-0.5-1-0.7-1.5-0.3-0.5-0.5-1-0.8-1.4-0.2-0.5-0.5-1-0.7-1.4-0.3-0.5-0.6-1-0.8-1.4-0.2-0.5-0.5-1-0.8-1.4-0.2-0.5-0.5-1-0.7-1.4-0.2-0.6-0.5-1-0.8-1.5-0.2-0.5-0.5-1-0.7-1.4-0.3-0.5-0.5-1-0.8-1.4-0.2-0.5-0.5-1-0.7-1.4-0.3-0.5-0.6-1-0.8-1.4-0.2-0.6-0.5-1-0.8-1.5-0.2-0.5-0.5-0.9-0.7-1.4-0.3-0.5-0.5-1-0.8-1.4-0.2-0.5-0.5-1-0.7-1.4-0.3-0.5-0.5-1-0.8-1.4-0.2-0.5-0.5-1-0.7-1.4-0.3-0.6-0.6-1-0.8-1.5-0.2-0.5-0.5-0.9-0.8-1.4-0.2-0.5-0.5-1-0.7-1.4-0.3-0.5-0.5-1-0.8-1.4-0.2-0.5-0.5-1-0.7-1.4-0.3-0.5-0.6-1-0.8-1.4-0.2-0.6-0.5-1-0.7-1.5-0.3-0.5-0.6-0.9-0.8-1.4-0.2-0.5-0.5-1-0.8-1.4-0.2-0.5-0.5-1-0.7-1.4-0.3-0.5-0.5-1-0.8-1.4-0.2-0.5-0.5-1-0.7-1.4-0.3-0.6-0.6-1-0.8-1.5-0.2-0.5-0.5-1-0.7-1.4-0.3-0.5-0.6-1-0.8-1.4-0.2-0.5-0.5-1-0.8-1.4q-0.4-0.8-0.7-1.4c-0.3-0.5-0.5-1-0.8-1.4-0.2-0.6-0.5-1-0.7-1.5q-0.5-0.7-0.8-1.4c-0.2-0.5-0.5-1-0.8-1.4-0.2-0.5-0.5-1-0.7-1.4-0.2-0.5-0.5-1-0.8-1.4-0.2-0.6-0.5-1-0.7-1.5-0.3-0.5-0.5-0.9-0.8-1.4-0.2-0.5-0.5-1-0.7-1.4-0.3-0.5-0.6-1-0.8-1.4-0.2-0.5-0.5-1-0.8-1.4-0.2-0.5-0.5-1-0.7-1.4-0.2-0.6-0.5-1-0.8-1.5-0.2-0.5-0.5-0.9-0.7-1.4-0.3-0.5-0.5-1-0.8-1.4-0.2-0.5-0.5-1-0.7-1.4-0.3-0.5-0.6-1-0.8-1.4-0.2-0.5-0.5-1-0.8-1.4-0.2-0.6-0.5-1-0.7-1.5-0.2-0.5-0.5-0.9-0.8-1.4-0.2-0.5-0.5-1-0.7-1.4-0.3-0.5-0.5-1-0.8-1.4-0.2-0.5-0.5-1-0.7-1.4-0.3-0.5-0.6-1-0.8-1.4-0.2-0.6-0.5-1-0.8-1.5-0.2-0.5-0.5-1-0.7-1.4-0.3-0.5-0.5-1-0.8-1.4-0.2-0.5-0.5-1-0.7-1.4-0.3-0.5-0.6-1-0.8-1.4-0.2-0.6-0.5-1-0.7-1.4-0.3-0.6-0.6-1-0.8-1.5-0.2-0.5-0.5-1-0.8-1.4-0.2-0.5-0.5-1-0.7-1.4-0.3-0.5-0.5-1-0.8-1.4-0.2-0.5-0.5-1-0.7-1.4-0.3-0.6-0.6-1-0.8-1.5-0.2-0.5-0.5-0.9-0.7-1.4-0.3-0.5-0.6-1-0.8-1.4-0.2-0.5-0.5-1-0.8-1.4-0.2-0.5-0.5-1-0.7-1.4-0.3-0.5-0.5-1-0.8-1.4-0.2-0.6-0.5-1-0.7-1.5-3.1-6-8.3-8.5-13.2-8.5-2.1 0-4.2 0.5-6 1.3-6.1 2.6-11.3 9.6-8.1 18.7 0.1 0.6 0.3 1.1 0.5 1.5 0.1 0.6 0.3 1.1 0.4 1.6 0.2 0.6 0.4 1.1 0.5 1.6 0.2 0.5 0.3 1 0.5 1.5 0.1 0.6 0.3 1.1 0.5 1.6 0.1 0.5 0.3 1 0.4 1.5 0.2 0.6 0.4 1.1 0.5 1.6 0.2 0.6 0.3 1 0.5 1.5 0.1 0.6 0.3 1.1 0.5 1.6 0.1 0.6 0.3 1 0.4 1.6 0.2 0.5 0.4 1 0.5 1.5 0.1 0.6 0.3 1.1 0.5 1.6 0.1 0.6 0.3 1 0.4 1.5 0.2 0.6 0.4 1.1 0.5 1.6 0.2 0.6 0.4 1 0.5 1.6 0.1 0.5 0.3 1 0.5 1.5 0.1 0.6 0.3 1.1 0.4 1.6 0.2 0.5 0.4 1 0.5 1.5 0.2 0.6 0.3 1.1 0.5 1.6 0.1 0.6 0.3 1 0.5 1.6 0.1 0.5 0.3 1 0.4 1.5 0.2 0.6 0.4 1.1 0.5 1.6 0.2 0.5 0.3 1 0.5 1.5 0.1 0.6 0.3 1.1 0.5 1.6 0.1 0.6 0.3 1 0.4 1.6 0.2 0.5 0.4 1 0.5 1.5 0.1 0.6 0.3 1.1 0.5 1.6 0.1 0.5 0.3 1 0.5 1.5 0.1 0.6 0.3 1.1 0.4 1.6 0.2 0.6 0.4 1 0.5 1.5 0.1 0.6 0.3 1.1 0.5 1.6 0.1 0.6 0.3 1 0.4 1.6 0.2 0.5 0.4 1 0.5 1.5 0.2 0.6 0.3 1.1 0.5 1.6 0.1 0.6 0.3 1 0.5 1.5 0.1 0.6 0.3 1.1 0.4 1.6 0.2 0.6 0.4 1 0.5 1.6 0.2 0.5 0.3 1 0.5 1.5 0.1 0.6 0.3 1.1 0.5 1.6 0.1 0.5 0.3 1 0.4 1.5 0.2 0.6 0.4 1.1 0.5 1.6 0.1 0.6 0.3 1 0.5 1.6 0.1 0.5 0.3 1 0.5 1.5 0.1 0.6 0.3 1.1 0.4 1.6 0.2 0.5 0.4 1 0.5 1.5 0.1 0.6 0.3 1.1 0.5 1.6 0.1 0.6 0.3 1 0.4 1.5 0.2 0.6 0.4 1.1 0.5 1.6 0.2 0.6 0.4 1 0.5 1.6 0.1 0.5 0.3 1 0.5 1.5 0.1 0.6 0.3 1.1 0.4 1.6 0.2 0.6 0.4 1 0.5 1.5 0.2 0.6 0.3 1.1 0.5 1.6 0.1 0.6 0.3 1 0.5 1.6 0.1 0.5 0.3 1 0.4 1.5 0.2 0.6 0.4 1.1 0.5 1.6 0.1 0.5 0.3 1 0.5 1.5 0.1 0.6 0.3 1.1 0.5 1.6 0.1 0.6 0.3 1 0.4 1.6 0.2 0.5 0.4 1 0.5 1.5 0.1 0.6 0.3 1.1 0.5 1.6 0.1 0.5 0.3 1 0.4 1.5 0.2 0.6 0.4 1.1 0.5 1.6 0.2 0.6 0.4 1 0.5 1.6 0.1 0.5 0.3 1 0.5 1.5 0.1 0.6 0.3 1.1 0.4 1.6 0.2 0.5 0.4 1 0.5 1.5 0.2 0.6 0.3 1.1 0.5 1.6 0.1 0.6 0.3 1 0.5 1.5 0.1 0.6 0.3 1.1 0.4 1.6 0.2 0.6 0.4 1 0.5 1.6 0.2 0.5 0.3 1 0.5 1.5 0.1 0.6 0.3 1.1 0.5 1.6 0.1 0.6 0.3 1 0.4 1.5 0.2 0.6 0.4 1.1 0.5 1.6 0.1 0.6 0.3 1 0.5 1.6 0.1 0.5 0.3 1 0.4 1.5 0.2 0.6 0.4 1.1 0.5 1.6 0.2 0.5 0.4 1 0.5 1.5 0.1 0.6 0.3 1.1 0.5 1.6 0.1 0.6 0.3 1 0.4 1.6 0.2 0.5 0.4 1 0.5 1.5 0.2 0.6 0.3 1.1 0.5 1.6 0.1 0.5 0.3 1 0.5 1.5 0.1 0.6 0.3 1.1 0.4 1.6 0.2 0.5 0.4 1 0.5 1.6 0.2 0.5 0.3 1 0.5 1.5 0.1 0.6 0.3 1 0.5 1.6 0.1 0.5 0.3 1 0.4 1.5 0.2 0.6 0.4 1.1 0.5 1.6 0.1 0.6 0.3 1 0.5 1.5 0.1 0.6 0.3 1.1 0.5 1.6 0.1 0.6 0.3 1 0.4 1.6 0.2 0.5 0.4 1 0.5 1.5 0.1 0.5 0.3 1.1 0.5 1.6 0.1 0.5 0.3 1 0.4 1.5 0.2 0.6 0.4 1.1 0.5 1.6 0.2 0.6 0.3 1 0.5 1.6 0.1 0.5 0.3 1 0.5 1.5 0.1 0.6 0.3 1.1 0.4 1.6 0.2 0.5 0.4 1 0.5 1.5 6.5 20.3 12.9 40.5 19.4 60.6 7.6 23.6 15.1 47.2 22.7 70.8 0.9 3 1.8 5.9 2.7 8.9 5.4 17.8 10.1 33.2 30.4 41.5 22.2 8.8 40.9-0.8 51-12.6 12.7-15 14.4-35.6 4.3-52.4z"/>
		<path class="s0" d="m867.9 1186.8l-8.4-8.9q-54-56.4-108-112.8c-0.3-0.4-0.6-0.6-0.9-0.9l-0.1-0.2c-0.3-0.3-0.5-0.6-0.8-0.8-0.4-0.4-0.7-0.7-1-1-0.4-0.4-0.6-0.7-0.9-1-0.4-0.4-0.7-0.7-1-1-0.3-0.4-0.6-0.7-0.9-1-0.4-0.4-0.7-0.7-1-1-0.3-0.4-0.6-0.7-0.9-1-0.3-0.3-0.6-0.6-1-1-0.3-0.3-0.6-0.7-0.9-1-0.4-0.3-0.7-0.7-0.9-0.9-0.4-0.4-0.7-0.7-1-1-0.3-0.4-0.6-0.7-0.9-1-0.4-0.4-0.7-0.7-1-1-0.3-0.4-0.6-0.7-0.9-1-0.4-0.4-0.7-0.7-1-1-0.4-0.4-0.6-0.7-0.9-1-0.4-0.4-0.7-0.7-1-1-0.4-0.4-0.6-0.7-0.9-1-0.4-0.4-0.6-0.6-1-1-0.3-0.4-0.6-0.7-0.9-1-0.4-0.3-0.6-0.7-1-1-0.3-0.3-0.6-0.7-0.9-0.9-0.4-0.4-0.7-0.8-1-1-0.3-0.4-0.6-0.7-0.9-1-0.3-0.4-0.6-0.7-1-1-0.3-0.4-0.6-0.7-0.9-1-0.3-0.4-0.6-0.7-0.9-1-0.4-0.4-0.7-0.7-1-1-0.3-0.4-0.6-0.7-0.9-1-0.4-0.4-0.7-0.7-1-1-0.3-0.3-0.6-0.6-0.9-1-0.4-0.4-0.6-0.6-1-1-0.3-0.3-0.6-0.6-0.9-1-0.4-0.3-0.6-0.6-1-1-0.3-0.3-0.6-0.6-0.9-0.9-0.4-0.4-0.6-0.7-1-1-0.3-0.4-0.6-0.7-0.9-1-0.3-0.4-0.6-0.7-1-1-0.3-0.4-0.6-0.7-0.9-1-0.3-0.4-0.6-0.7-1-1-0.3-0.4-0.6-0.7-0.9-1-0.3-0.4-0.6-0.7-0.9-1-0.4-0.4-0.7-0.7-1-1-0.3-0.4-0.6-0.6-0.9-1-0.4-0.4-0.7-0.6-1-1-0.3-0.3-0.6-0.6-0.9-1-0.4-0.3-0.6-0.6-1-1-0.3-0.3-0.6-0.6-0.9-0.9-0.4-0.4-0.6-0.7-1-1-0.3-0.4-0.6-0.7-0.9-1-0.4-0.4-0.6-0.7-1-1-0.3-0.4-0.6-0.7-0.9-1-0.3-0.4-0.6-0.7-1-1-0.3-0.4-0.6-0.7-0.9-1-0.3-0.4-0.6-0.7-1-1-0.3-0.4-0.6-0.6-0.9-1-0.3-0.4-0.6-0.6-0.9-1-0.4-0.4-0.7-0.6-1-1-0.3-0.3-0.6-0.6-0.9-1-0.4-0.3-0.7-0.6-1-0.9-0.3-0.4-0.6-0.7-0.9-1-0.4-0.4-0.7-0.7-1-1-0.3-0.4-0.6-0.7-0.9-1-0.4-0.4-0.6-0.7-1-1-0.3-0.4-0.6-0.7-0.9-1-0.4-0.4-0.6-0.7-1-1-0.3-0.4-0.6-0.7-0.9-1-0.3-0.4-0.6-0.7-1-1-0.3-0.4-0.6-0.6-0.9-1-0.3-0.4-0.6-0.6-1-1-0.3-0.3-0.6-0.7-0.9-1-0.3-0.3-0.6-0.6-1-1-0.3-0.3-0.6-0.6-0.9-0.9-0.3-0.4-0.6-0.8-0.9-1-0.4-0.4-0.7-0.7-1-1-3.4-3.7-7.3-5.2-11-5.2-3.4 0-6.7 1.3-9.3 3.3-5.1 4.1-8.3 12.1-3 20.1q0.4 0.6 0.7 1.1 0.4 0.6 0.7 1.1 0.4 0.7 0.7 1.2 0.4 0.6 0.8 1.1 0.3 0.7 0.7 1.2 0.3 0.6 0.7 1.1 0.3 0.6 0.7 1.1 0.3 0.7 0.7 1.2 0.4 0.6 0.7 1.2 0.4 0.6 0.7 1.1 0.4 0.6 0.7 1.1 0.4 0.7 0.7 1.2 0.4 0.6 0.7 1.1 0.4 0.6 0.8 1.1 0.3 0.7 0.7 1.2 0.3 0.6 0.7 1.1 0.3 0.6 0.7 1.1 0.3 0.7 0.7 1.2 0.4 0.6 0.7 1.1 0.4 0.6 0.7 1.1 0.4 0.7 0.7 1.2 0.4 0.6 0.7 1.1 0.4 0.6 0.7 1.1 0.4 0.7 0.8 1.2 0.3 0.6 0.7 1.1 0.3 0.6 0.7 1.1 0.3 0.7 0.7 1.2 0.3 0.6 0.7 1.1 0.4 0.6 0.7 1.1 0.4 0.7 0.7 1.2 0.4 0.7 0.7 1.1 0.4 0.7 0.7 1.2 0.4 0.7 0.7 1.2 0.4 0.6 0.8 1.1 0.3 0.6 0.7 1.2 0.3 0.6 0.7 1.1 0.3 0.6 0.7 1.1 0.3 0.7 0.7 1.2 0.4 0.6 0.7 1.1 0.4 0.7 0.7 1.1 0.4 0.7 0.7 1.2 0.4 0.6 0.7 1.1c0.3 0.5 0.6 0.8 0.8 1.1q0.3 0.7 0.7 1.2 0.3 0.7 0.7 1.2 0.3 0.6 0.7 1.1 0.3 0.6 0.7 1.1c0.3 0.5 0.5 0.8 0.7 1.2 0.3 0.4 0.5 0.8 0.7 1.1 0.3 0.5 0.5 0.8 0.7 1.2q0.4 0.6 0.7 1.1c0.3 0.5 0.6 0.8 0.7 1.1q0.4 0.7 0.8 1.2 0.3 0.7 0.7 1.2 0.3 0.6 0.7 1.1c0.3 0.5 0.5 0.8 0.7 1.1 0.3 0.5 0.5 0.8 0.7 1.2l0.1 0.2q0.3 0.4 0.6 0.9l0.1 0.2q0.3 0.5 0.6 1c0.3 0.5 0.5 0.8 0.7 1.2l0.1 0.1q0.3 0.5 0.6 1c0.3 0.5 0.5 0.8 0.7 1.2 0.3 0.5 0.5 0.8 0.8 1.2q0.3 0.6 0.7 1.1c0.2 0.5 0.5 0.8 0.7 1.1l0.1 0.2q0.2 0.5 0.6 1l0.1 0.2q0.3 0.5 0.6 1l0.1 0.2q0.3 0.5 0.6 1c0.3 0.4 0.5 0.8 0.7 1.1l0.2 0.2q0.2 0.5 0.5 0.9l0.1 0.2q0.3 0.5 0.6 1l0.1 0.2q0.3 0.5 0.6 1c0.3 0.5 0.5 0.8 0.8 1.1l0.1 0.3q0.3 0.5 0.6 0.9l0.2 0.2c0.1 0.3 0.3 0.6 0.5 0.9l0.1 0.2q0.3 0.5 0.6 1c24.1 38.1 48.3 76 72.4 114.1 4.6 7.3 9.2 14.6 13.8 21.8 5.2 9 12.1 18.7 24.1 23.3 23.8 9.1 42.2-2.9 50.8-16.1 9.3-14.2 11.2-36-5.6-52.7z"/>
		<path class="s0" d="m714.4 933.6c-4 5.2-4.9 13.4 1.9 19.7q0.4 0.5 0.7 0.8c0.3 0.2 0.5 0.5 0.8 0.7 0.3 0.3 0.5 0.5 0.8 0.8 0.3 0.3 0.5 0.5 0.8 0.7 0.3 0.3 0.5 0.5 0.8 0.8 0.3 0.3 0.5 0.5 0.8 0.7 0.3 0.3 0.5 0.6 0.8 0.8 0.3 0.3 0.5 0.5 0.8 0.7 0.3 0.3 0.5 0.6 0.8 0.8q0.3 0.4 0.7 0.7c0.3 0.3 0.5 0.5 0.8 0.8 0.3 0.2 0.5 0.5 0.8 0.7 0.3 0.3 0.5 0.5 0.8 0.8 0.3 0.3 0.5 0.5 0.8 0.7 0.3 0.3 0.5 0.6 0.8 0.8 0.3 0.3 0.5 0.5 0.8 0.7 0.2 0.3 0.5 0.5 0.7 0.7l0.1 0.1q0.3 0.4 0.8 0.8c0.2 0.2 0.5 0.5 0.8 0.7 0.2 0.3 0.5 0.5 0.8 0.8 0.2 0.2 0.4 0.4 0.6 0.6 0.4 0.4 0.6 0.6 0.9 0.8 0.3 0.4 0.5 0.6 0.8 0.8 0.3 0.3 0.5 0.5 0.7 0.7 0.4 0.4 0.6 0.6 0.8 0.8 0.4 0.3 0.6 0.5 0.9 0.8 0.3 0.3 0.5 0.5 0.8 0.8 0.2 0.2 0.5 0.4 0.7 0.6 0.3 0.4 0.6 0.6 0.8 0.8 0.4 0.4 0.6 0.6 0.9 0.8 0.2 0.3 0.4 0.5 0.6 0.7 0.4 0.3 0.6 0.5 0.8 0.7 0.4 0.4 0.7 0.6 0.9 0.8 0.3 0.4 0.6 0.6 0.8 0.8 0.3 0.3 0.5 0.4 0.7 0.6l0.1 0.2q0.4 0.4 0.8 0.7c0.3 0.3 0.5 0.5 0.8 0.8 0.2 0.2 0.4 0.4 0.6 0.5l0.2 0.2c0 0 0.4 0.5 0.7 0.6 0.4 0.4 0.6 0.6 0.8 0.8 0.4 0.4 0.6 0.6 0.8 0.8 0.3 0.3 0.5 0.5 0.7 0.6l0.1 0.2q27 25.4 54 50.8l14.8 14c10.8 10.2 21.6 20.4 32.4 30.6l5.8 5.5q6.3 5.9 12.5 11.8c5 4.7 10 9.7 17.1 12.4 24 8.8 42.4-3.6 49.9-19.8 7.3-15.8 5.1-38.4-17-50.9l-41.9-24.8c-34.6-20.4-69.3-40.8-103.9-61.3l-0.2-0.1c0 0-0.4-0.3-0.6-0.4l-0.3-0.2c0 0-0.4-0.2-0.6-0.4l-0.3-0.2c0 0-0.4-0.2-0.6-0.3l-0.4-0.3c0 0-0.4-0.2-0.6-0.3l-0.4-0.3c0 0-0.3-0.2-0.5-0.3l-0.4-0.2c0 0-0.4-0.3-0.6-0.3l-0.4-0.3c0 0-0.3-0.2-0.5-0.3l-0.4-0.3c0 0-0.4-0.2-0.6-0.3l-0.3-0.2c0 0-0.4-0.2-0.6-0.4l-0.4-0.2c0 0-0.3-0.2-0.5-0.3l-0.4-0.2c0 0-0.3-0.2-0.5-0.3l-0.3-0.2c0 0-0.4-0.3-0.6-0.4l-0.3-0.2c0 0-0.4-0.2-0.6-0.4l-0.3-0.2c0 0-0.4-0.2-0.7-0.3l-0.2-0.2c0 0-0.5-0.3-0.7-0.4l-0.3-0.2c0 0-0.4-0.3-0.7-0.4l-0.2-0.2c0 0-0.5-0.2-0.7-0.3l-0.3-0.2c0 0-0.4-0.3-0.7-0.4l-0.2-0.2c0 0-0.5-0.3-0.7-0.4l-0.3-0.2c0 0-0.4-0.2-0.6-0.3l-0.3-0.2c0 0-0.5-0.3-0.7-0.4l-0.3-0.2c0 0-0.4-0.3-0.6-0.4l-0.3-0.2c0 0-0.4-0.2-0.7-0.3l-0.3-0.2c0 0-0.4-0.3-0.6-0.4l-0.3-0.2c0 0-0.4-0.2-0.6-0.4l-0.3-0.1c0 0-0.4-0.3-0.7-0.4-0.4-0.2-0.6-0.4-0.9-0.6l-0.3-0.1c0 0-0.4-0.3-0.6-0.4l-0.3-0.1c0 0-0.4-0.3-0.6-0.4l-0.3-0.1c0 0-0.4-0.3-0.6-0.4l-0.3-0.2c0 0-0.4-0.2-0.7-0.4l-0.3-0.1c0 0-0.4-0.3-0.6-0.4l-0.3-0.1c0 0-0.4-0.3-0.6-0.4l-0.3-0.2c0 0-0.4-0.3-0.7-0.3l-0.2-0.2c0 0-0.5-0.3-0.7-0.4l-0.3-0.2c0 0-0.4-0.2-0.7-0.3l-0.2-0.2c0 0-0.4-0.3-0.7-0.4l-0.2-0.1c0 0-0.4-0.3-0.7-0.4l-0.2-0.1c0 0-0.4-0.3-0.7-0.4l-0.2-0.1c0 0-0.4-0.3-0.7-0.4-0.3-0.2-0.6-0.4-0.9-0.6-0.4-0.2-0.7-0.4-0.9-0.5-2.7-1.7-5.5-2.4-8-2.4-4.9 0-9 2.6-11.6 6.1z"/>
		<path class="s0" d="m752.5 866.1c-2.9 7.1 0.1 15.2 7 18.7q5.6 3.2 11.2 6.3 15 8.5 30.1 17 25.1 14.2 50.3 28.5l31.4 17.8c2.6 1.4 5.1 2.8 7.6 4.3 4.2 2.4 8.6 5 13.1 7.1 23.3 8.4 40.6-4.5 46.9-20.1 6.3-15.5 2.8-36.8-19.8-46.9-6.4-2.1-13-3.7-19.5-5.3-3.8-1-7.9-1.9-11.8-3q-26.1-6.8-52.2-13.4c-17.6-4.5-35.2-9.1-52.9-13.6-6.2-1.6-12.5-3.2-18.7-4.7q-2.3-0.7-4.6-1.2c-1.5-0.4-2.9-0.7-4.4-0.7-5.9 0-11.4 3.5-13.7 9.3z"/>
		<path class="s0" d="m759.2 561.9c5.1-12.6-1-26.9-13.5-31.9-3-1.2-6.1-1.8-9.2-1.8-3.7 0-7.5 0.8-10.9 2.6-6.4 3.1-11.1 8.8-12.9 15.6l-3.6 11.4c-2.9 7.6 0.8 16.1 8.2 19.1 3.1 1.3 6.2 1.1 9.5 0.9l9.5-0.6c10.2-0.1 19.2-6.1 22.9-15.4z"/>
		<path class="s0" d="m825.8 628.3c4.7-12.1 1-24.8-9.4-32.3-10.4-7.6-23.6-7.2-33.6 1l-27 24c-4.6 3.3-6.9 8.7-6.2 14.2 0.6 5.5 4.1 9.8 9.1 11.8 3.1 1.4 6.1 1.2 9.4 0.8l31.1-2.3c12.2 0 22.4-6.6 26.7-17.3z"/>
		<path class="s0" d="m884.3 713.2c4.7-11.6 2-24.3-7.1-33.1-5.9-5.7-13.4-8.7-21.1-8.7-4.1 0-8.2 0.9-12.2 2.6l-63.5 23.9c-5.6 2.2-9.2 7.4-9.2 13.7 0 6.2 3.5 11.4 9.2 13.7 2 0.9 4.2 1 6.5 1.2 0.6 0 1.2 0.1 1.8 0.2l64.8 5.3c13.4 1.2 25.8-6.4 30.8-18.9z"/>
		<path class="s0" d="m928.9 819c4.4-10.1 3-21.9-3.8-31.5-6.8-9.6-17.4-14.9-28.5-14.1l-9.4 0.4-97.9 4.2q-0.5 0-1 0c-5.9 0-12.7 2.5-15.4 9.4-3.1 7.6 0.6 16.2 8.2 19.3 3.5 1.1 7.1 2.1 10.6 3.2 2.3 0.6 4.6 1.3 6.9 2l89.9 26.6c16.6 4.9 33.9-3.4 40.4-19.4z"/>
		<path class="s0" d="m647.3 494.8c-4.4 11 0.9 23.6 11.9 28.1 13.9 4.9 24.3-2.7 28.1-12 3.7-9.2 1.6-22-11.9-28q-3.9-1.6-8-1.6c-8.6 0-16.7 5.1-20.1 13.5z"/>
		<path class="s0" d="m767 38.6c-6.4-2.6-13.2-3.9-19.9-3.9-8.5 0-16.9 2-24.7 6-14.2 7.3-24.3 20.2-27.9 35.5-15.8 52.9-31.5 105.8-47.2 158.7q-0.3 1-0.6 1.9-0.3 1-0.5 2-0.4 1-0.6 1.9-0.3 1-0.6 1.9c-0.2 0.7-0.4 1.3-0.5 2q-0.4 1-0.6 1.9-0.3 1-0.6 1.9c-0.2 0.7-0.4 1.3-0.5 2q-0.4 1-0.6 1.9-0.4 1-0.6 2-0.3 1-0.5 1.9-0.4 1-0.6 1.9-0.4 1-0.6 2-0.3 1-0.5 1.9-0.4 1-0.6 1.9-0.4 1-0.6 2c-0.2 0.6-0.4 1.3-0.5 1.9q-0.4 1-0.6 2-0.4 1-0.6 1.9-0.3 1-0.5 1.9-0.4 1-0.6 2-0.4 1-0.6 1.9-0.3 1-0.6 1.9-0.3 1-0.5 2-0.4 1-0.6 1.9c-0.2 0.7-0.4 1.3-0.6 1.9q-0.3 1.1-0.5 2-0.4 1-0.6 1.9-0.3 1-0.6 2-0.3 1-0.5 1.9-0.4 1-0.6 1.9-0.4 1-0.6 2-0.3 1-0.5 1.9-0.4 1-0.6 1.9-0.4 1-0.6 2-0.3 1-0.5 1.9-0.4 1-0.6 2-0.4 1-0.6 1.9-0.3 1-0.5 1.9-0.4 1-0.6 2-0.4 1-0.6 1.9-0.3 1-0.5 1.9-0.4 1-0.6 2-0.4 1-0.6 1.9-0.3 1-0.6 1.9-0.3 1.1-0.5 2-0.4 1-0.6 1.9-0.3 1-0.6 2-0.3 1-0.5 1.9-0.4 1-0.6 1.9-0.3 1-0.6 2-0.3 1-0.5 1.9-0.4 1-0.6 1.9-0.3 1-0.6 2c-0.2 0.6-0.4 1.3-0.5 1.9q-0.4 1-0.6 2-0.4 1-0.6 1.9-0.3 1-0.5 1.9-0.4 1-0.6 2-0.4 1-0.6 1.9-0.3 1-0.5 1.9c-0.3 0.7-0.5 1.4-0.6 2q-0.4 1-0.6 1.9-0.3 1-0.5 2-0.4 1-0.6 1.9-0.4 1-0.6 1.9c-0.2 0.7-0.4 1.3-0.5 2-0.3 0.7-0.5 1.3-0.6 1.9q-0.4 1-0.6 1.9-0.3 1-0.6 2-0.3 1-0.5 1.9-0.4 1-0.6 1.9-0.3 1.1-0.6 2-0.3 1-0.5 1.9c-0.3 0.7-0.5 1.3-0.6 2-0.2 0.7-0.4 1.3-0.6 1.9q-0.3 1-0.5 1.9-0.4 1-0.6 2-0.4 1-0.6 1.9c-0.2 0.7-0.4 1.3-0.5 1.9q-0.4 1-0.6 2-0.4 1-0.6 1.9-0.3 1-0.5 2c-0.3 0.7-0.5 1.3-0.6 1.9-0.2 0.7-0.4 1.3-0.6 1.9-0.2 0.7-0.4 1.4-0.5 2-0.3 0.7-0.5 1.3-0.6 1.9-0.2 0.7-0.4 1.3-0.6 1.9-0.2 0.7-0.4 1.4-0.5 2-0.3 0.7-0.5 1.3-0.6 1.9-0.3 0.7-0.4 1.3-0.6 1.9-0.2 0.8-0.4 1.4-0.6 2-0.2 0.7-0.4 1.3-0.5 1.9-0.3 0.7-0.4 1.3-0.6 2-0.2 0.7-0.4 1.3-0.6 1.9q-0.3 1-0.5 1.9c-0.3 0.7-0.5 1.4-0.6 2-0.2 0.7-0.4 1.3-0.6 1.9-0.2 0.7-0.4 1.3-0.5 1.9-0.3 0.8-0.5 1.4-0.6 2-0.2 0.7-0.4 1.3-0.6 1.9-0.2 0.7-0.4 1.3-0.5 2-0.3 0.7-0.5 1.3-0.6 1.9-0.2 0.7-0.4 1.3-0.6 1.9-0.2 0.7-0.4 1.4-0.5 2-0.3 0.7-0.5 1.3-0.6 1.9-0.2 0.7-0.4 1.3-0.6 1.9-0.2 0.7-0.4 1.4-0.5 2-0.3 0.7-0.5 1.3-0.6 1.9-0.2 0.7-0.4 1.3-0.6 1.9-0.2 0.8-0.4 1.4-0.5 2-0.3 0.7-0.5 1.3-0.6 1.9-0.3 0.7-0.4 1.3-0.6 2-0.2 0.6-0.4 1.2-0.6 1.9-0.2 0.7-0.4 1.3-0.5 1.9-0.3 0.7-0.4 1.4-0.6 2-0.2 0.7-0.4 1.3-0.6 1.9-3.1 9.4 2.2 16.3 8.4 18.8 6.2 2.5 14.8 1.2 19.1-7.7 0.3-0.6 0.6-1.2 0.9-1.7 0.3-0.7 0.6-1.3 0.9-1.8 0.4-0.6 0.7-1.2 1-1.8 0.3-0.6 0.6-1.2 0.9-1.8 0.4-0.6 0.7-1.2 0.9-1.8 0.4-0.6 0.7-1.2 1-1.8 0.4-0.6 0.7-1.2 0.9-1.8 0.4-0.6 0.7-1.2 1-1.8 0.4-0.6 0.6-1.2 0.9-1.8 0.4-0.6 0.7-1.2 1-1.8 0.4-0.6 0.6-1.2 0.9-1.8 0.4-0.6 0.7-1.2 1-1.8 0.4-0.6 0.6-1.2 0.9-1.8 0.4-0.6 0.7-1.2 1-1.8 0.3-0.6 0.6-1.2 0.9-1.8 0.4-0.6 0.7-1.2 1-1.8 0.3-0.6 0.6-1.1 0.9-1.8 0.4-0.6 0.7-1.1 1-1.8 0.3-0.6 0.6-1.1 0.9-1.8 0.4-0.6 0.7-1.1 0.9-1.7 0.4-0.7 0.7-1.2 1-1.8 0.4-0.7 0.7-1.2 0.9-1.8 0.4-0.7 0.7-1.2 1-1.8 0.4-0.6 0.7-1.2 0.9-1.8 0.4-0.6 0.7-1.2 1-1.8 0.4-0.6 0.6-1.2 0.9-1.8 0.4-0.6 0.7-1.2 1-1.8 0.3-0.6 0.6-1.2 0.9-1.8 0.4-0.6 0.7-1.2 1-1.8 0.3-0.6 0.6-1.2 0.9-1.8 0.3-0.6 0.7-1.2 1-1.8 0.3-0.6 0.6-1.2 0.9-1.8 0.4-0.6 0.7-1.2 1-1.8 0.3-0.6 0.6-1.2 0.9-1.8 0.4-0.6 0.7-1.2 0.9-1.8 0.4-0.6 0.7-1.2 1-1.8 0.4-0.6 0.7-1.2 0.9-1.8 0.4-0.6 0.7-1.1 1-1.8 0.3-0.6 0.7-1.1 0.9-1.8 0.4-0.6 0.7-1.1 1-1.7 0.3-0.7 0.6-1.2 0.9-1.8 0.4-0.7 0.7-1.2 1-1.8 0.4-0.7 0.6-1.2 0.9-1.8 0.4-0.6 0.7-1.2 1-1.8 0.3-0.6 0.6-1.2 0.9-1.8 0.4-0.6 0.7-1.2 1-1.8 0.3-0.6 0.6-1.2 0.9-1.8 0.3-0.6 0.7-1.2 1-1.8 0.3-0.6 0.6-1.2 0.9-1.8 0.3-0.6 0.7-1.2 1-1.8 0.3-0.6 0.6-1.2 0.9-1.8 0.3-0.6 0.7-1.2 0.9-1.8 0.4-0.6 0.7-1.2 1-1.8 0.3-0.6 0.7-1.2 0.9-1.8 0.4-0.6 0.7-1.2 1-1.8 0.3-0.6 0.6-1.2 0.9-1.8 0.4-0.6 0.7-1.2 1-1.8 0.3-0.6 0.6-1.1 0.9-1.8 0.4-0.6 0.7-1.1 1-1.8 0.3-0.6 0.6-1.1 0.9-1.8 0.4-0.6 0.7-1.1 1-1.7 0.3-0.7 0.6-1.2 0.9-1.8 0.3-0.7 0.7-1.2 1-1.8 0.3-0.7 0.6-1.2 0.9-1.8 0.3-0.6 0.7-1.2 1-1.8 0.3-0.6 0.6-1.2 0.9-1.8 0.3-0.6 0.7-1.2 0.9-1.8 0.4-0.6 0.7-1.2 1-1.8 0.3-0.6 0.7-1.2 0.9-1.8 0.4-0.6 0.7-1.2 1-1.8 0.3-0.6 0.7-1.2 0.9-1.8 0.4-0.6 0.7-1.2 1-1.8 0.3-0.6 0.6-1.2 0.9-1.8 0.4-0.6 0.7-1.2 1-1.8 0.3-0.6 0.6-1.2 0.9-1.8 0.4-0.6 0.7-1.2 1-1.8 0.3-0.6 0.6-1.2 0.9-1.8 0.3-0.6 0.7-1.2 1-1.8 0.3-0.6 0.6-1.1 0.9-1.8 0.3-0.6 0.7-1.1 1-1.8 0.3-0.6 0.6-1.1 0.9-1.8 0.3-0.6 0.7-1.1 1-1.7 0.3-0.7 0.6-1.2 0.9-1.8 0.3-0.7 0.7-1.2 0.9-1.8 0.4-0.7 0.7-1.2 1-1.8 0.3-0.6 0.7-1.2 0.9-1.8 0.4-0.6 0.7-1.2 1-1.8 0.3-0.6 0.6-1.2 0.9-1.8 0.4-0.6 0.7-1.2 1-1.8 0.3-0.6 0.6-1.2 0.9-1.8 0.4-0.6 0.7-1.2 1-1.8 0.3-0.6 0.6-1.2 0.9-1.8 0.4-0.6 0.7-1.2 1-1.8 0.3-0.6 0.6-1.2 0.9-1.8 0.3-0.6 0.7-1.2 1-1.8 0.3-0.6 0.6-1.2 0.9-1.8 0.3-0.6 0.7-1.2 1-1.8 0.3-0.6 0.6-1.2 0.9-1.8 0.3-0.6 0.7-1.2 0.9-1.8 0.4-0.6 0.7-1.1 1-1.8 0.3-0.6 0.7-1.1 0.9-1.8 0.4-0.6 0.7-1.1 1-1.8 0.3-0.6 0.6-1.1 0.9-1.7 0.4-0.7 0.7-1.2 1-1.8 0.3-0.7 0.6-1.2 0.9-1.8 0.4-0.7 0.7-1.2 1-1.8 0.3-0.6 0.6-1.2 0.9-1.8 0.4-0.6 0.6-1.2 1-1.8 0.3-0.6 0.6-1.2 0.9-1.8 0.3-0.6 0.6-1.2 1-1.8 0.3-0.6 0.6-1.2 0.9-1.8 0.3-0.6 0.7-1.2 1-1.8 0.3-0.6 0.6-1.2 0.9-1.8 0.3-0.6 0.7-1.2 1-1.8 0.3-0.6 0.6-1.2 0.9-1.8 0.3-0.6 0.7-1.2 0.9-1.8 0.4-0.6 0.7-1.2 1-1.8 5.3-10.2 10.6-20.4 16-30.6q12.6-24.1 25.1-48.3c5-9.7 10.2-19.6 15.2-29.1 8-15.1 16.2-30.8 23.9-46.4 5.3-13.2 5.2-27.8-0.4-41-5.6-13.2-16-23.4-29.3-28.7z"/>
		<path class="s0" d="m506.4 251.9v0.5c0 0.5-0.1 1-0.1 1.4v0.6c0 0.4-0.1 0.9 0 1.4v0.5c0 0.5-0.1 0.9-0.1 1.4v0.4c0 0.6-0.1 1.1 0 1.5v0.5c0 0.5-0.1 1-0.1 1.5v0.5c0 0.5-0.1 0.9 0 1.5v0.5c0 0.5-0.1 0.9-0.1 1.4v0.4c0 0.5-0.1 1.1 0 1.5v0.5c0 0.5-0.1 1-0.1 1.5v0.4c0 0.5-0.1 1 0 1.5v0.4c0 0.6-0.1 1-0.1 1.5v0.4c0 0.5 0 1.1 0 1.6v0.5c0 0.5 0 1 0 1.5v0.4c0 0.6-0.1 1-0.1 1.6v0.3c0 0.5-0.1 1.1 0 1.6v0.3c0 0.5-0.1 1.1-0.1 1.6v0.4c0 0.5-0.1 1 0 1.6v0.3c0 0.6-0.1 1.1-0.1 1.6v0.4c0 0.5-0.1 1.1 0 1.6v0.3c0 0.5-0.1 1.1-0.1 1.6v0.4c0 0.5-0.1 1 0 1.6v0.3c0 0.5-0.1 1.1-0.1 1.6v0.2c0 0.6-0.1 1.2 0 1.8v0.2c0 0.6-0.1 1.2-0.1 1.8v0.3c0 0.5-0.1 1.1 0 1.6v0.3c0 0.6-0.1 1.1-0.1 1.6v0.3c0 0.5-0.1 1.2 0 1.7v0.3c0 0.5-0.1 1.1-0.1 1.7v0.2c0 0.6 0 1.2 0 1.8 0 0.7-0.1 1.3 0 2v0.2c0 0.5-0.1 1.1-0.1 1.7v0.2c0 0.6-0.1 1.2 0 1.7 0 0.8-0.1 1.4-0.1 2 0 0.7-0.1 1.4 0 2 0 0.7-0.1 1.3-0.1 2 0 0.7-0.1 1.3 0 2 0 0.7-0.1 1.3-0.1 2 0 0.7-0.1 1.3 0 2 0 0.7-0.1 1.3-0.1 1.9 0 0.7-0.1 1.4 0 2 0 0.7-0.1 1.3-0.1 2 0 0.7-0.1 1.3 0 2 0 0.7-0.1 1.3-0.1 2 0 0.7-0.1 1.3 0 2 0 0.7-0.1 1.3-0.1 1.9 0 0.8-0.1 1.4 0 2 0 0.7-0.1 1.3-0.1 2 0 0.7 0 1.3 0 2 0 0.7-0.1 1.3 0 2 0 0.7-0.1 1.3-0.1 2 0 0.7-0.1 1.3 0 1.9 0 0.8-0.1 1.4-0.1 2 0 0.7-0.1 1.4 0 2 0 0.7-0.1 1.3-0.1 2 0 0.7-0.1 1.3 0 2 0 0.7-0.1 1.3-0.1 2 0 0.7-0.1 1.3 0 2 0 0.7-0.1 1.3-0.1 1.9 0 0.7-0.1 1.4 0 2 0 0.7-0.1 1.3-0.1 2 0 0.7-0.1 1.3 0 2 0 0.7-0.1 1.3-0.1 2 0 0.7-0.1 1.3 0 2-0.1 0.7-0.1 1.3-0.1 1.9 0 0.8-0.1 1.4 0 2-0.1 0.7-0.1 1.3-0.1 2 0 0.7 0 1.3 0 2 0 0.7-0.1 1.3 0 2-0.1 0.7-0.1 1.3-0.1 2 0 0.7-0.1 1.3 0 1.9-0.1 0.8-0.1 1.4-0.1 2 0 0.7-0.1 1.4 0 2-0.1 0.7-0.1 1.3-0.1 2 0 0.7-0.1 1.3 0 2-0.1 0.7-0.1 1.3-0.1 2 0 0.7-0.1 1.3 0 2-0.1 0.7-0.1 1.3-0.1 1.9 0 0.7-0.1 1.4 0 2-0.1 0.7-0.1 1.3-0.1 2 0 0.7-0.1 1.3 0 2-0.1 0.7-0.1 1.3-0.1 2 0 0.7-0.1 1.3 0 2-0.1 0.7-0.1 1.3-0.1 1.9 0 0.8-0.1 1.4 0 2-0.1 0.7-0.1 1.3-0.1 2 0 0.7 0 1.3 0 2 0 0.7-0.1 1.3 0 2-0.1 0.7-0.1 1.3-0.1 2 0 0.7-0.1 1.3 0 1.9-0.1 0.8-0.1 1.4-0.1 2 0 0.7-0.1 1.4 0 2-0.1 0.7-0.1 1.4-0.1 2 0 0.7-0.1 1.4 0 2-0.1 0.7-0.1 1.4-0.1 2 0 0.7-0.1 1.3 0 2-0.1 0.7-0.1 1.3-0.1 1.9 0 0.7-0.1 1.4 0 2-0.1 0.7-0.1 1.4-0.1 2-0.7 8.8 5.1 14.3 11.3 15.7 6.1 1.5 13.7-0.6 17.2-8.7q0.6-1.5 0.9-3.3c0.2-0.7 0.3-1.3 0.4-1.9 0.2-0.7 0.3-1.3 0.4-1.9 0.2-0.7 0.4-1.4 0.5-2 0.2-0.7 0.3-1.3 0.4-1.9 0.2-0.7 0.3-1.3 0.4-1.9 0.2-0.8 0.3-1.4 0.4-2 0.2-0.7 0.4-1.3 0.5-1.9 0.2-0.7 0.3-1.3 0.4-2 0.2-0.7 0.3-1.3 0.4-1.9 0.2-0.7 0.3-1.3 0.4-1.9 0.2-0.7 0.4-1.4 0.5-2 0.2-0.7 0.3-1.3 0.4-1.9 0.2-0.7 0.3-1.3 0.4-1.9 0.2-0.8 0.4-1.4 0.4-2 0.2-0.7 0.4-1.3 0.5-1.9 0.2-0.7 0.3-1.3 0.4-2 0.2-0.7 0.3-1.3 0.4-1.9 0.2-0.7 0.4-1.3 0.5-1.9 0.1-0.7 0.3-1.4 0.4-2 0.2-0.7 0.3-1.3 0.4-1.9 0.2-0.7 0.3-1.3 0.4-1.9 0.2-0.7 0.4-1.4 0.5-2 0.1-0.7 0.3-1.3 0.4-1.9 0.2-0.7 0.3-1.3 0.4-1.9 0.2-0.8 0.3-1.4 0.4-2 0.2-0.7 0.4-1.3 0.5-1.9 0.2-0.7 0.3-1.3 0.4-2 0.2-0.7 0.3-1.3 0.4-1.9 0.2-0.7 0.3-1.3 0.4-1.9 0.2-0.7 0.4-1.4 0.5-2 0.2-0.7 0.3-1.3 0.4-1.9 0.2-0.7 0.3-1.3 0.4-1.9 0.2-0.8 0.3-1.4 0.4-2 0.2-0.7 0.4-1.3 0.5-1.9 0.2-0.7 0.3-1.3 0.4-2 0.2-0.7 0.3-1.3 0.4-1.9q0.3-1 0.4-1.9c0.2-0.7 0.4-1.4 0.5-2 0.2-0.7 0.3-1.3 0.4-1.9 0.2-0.7 0.3-1.3 0.4-1.9q0.3-1 0.5-2 0.2-1 0.4-1.9 0.3-1 0.4-2 0.3-1 0.4-1.9c0.2-0.7 0.4-1.3 0.5-1.9 0.1-0.7 0.3-1.3 0.4-2q0.3-1 0.4-1.9 0.3-1 0.4-1.9 0.3-1 0.5-2 0.2-1 0.4-1.9c0.2-0.7 0.3-1.3 0.4-1.9 0.2-0.8 0.3-1.4 0.4-2q0.3-1 0.5-1.9 0.2-1 0.4-2 0.3-1 0.4-1.9 0.3-1 0.4-1.9 0.3-1 0.5-2 0.3-1 0.4-1.9 0.3-1 0.4-1.9 0.3-1 0.4-2 0.3-1 0.5-1.9 0.3-1 0.4-2 0.3-1 0.4-1.9c0.2-0.7 0.4-1.3 0.5-1.9 0.1-0.7 0.3-1.3 0.4-2q0.3-1 0.4-1.9 0.3-1 0.4-1.9c0.2-0.7 0.4-1.4 0.5-2 0.1-0.6 0.3-1.3 0.4-1.9 0.1-0.7 0.3-1.3 0.4-1.9 0.2-0.7 0.3-1.4 0.4-2 0.2-0.6 0.4-1.3 0.5-1.9 0.1-0.7 0.3-1.3 0.4-2 0.1-0.6 0.3-1.3 0.4-1.9 0.2-0.7 0.3-1.3 0.4-1.9 0.2-0.7 0.4-1.4 0.5-2 0.1-0.6 0.3-1.3 0.4-1.9 0.1-0.7 0.3-1.3 0.4-1.9 0.2-0.7 0.3-1.4 0.4-2 0.2-0.6 0.4-1.3 0.5-1.9 0.2-0.8 0.3-1.3 0.4-2 0.1-0.6 0.3-1.3 0.4-1.9 0.2-0.7 0.4-1.3 0.4-1.9 0.2-0.7 0.4-1.4 0.5-2 0.1-0.6 0.3-1.3 0.4-1.9 0.2-0.8 0.3-1.4 0.4-1.9 0.2-0.8 0.4-1.4 0.5-2 0.1-0.7 0.3-1.3 0.4-1.9 0.2-0.7 0.3-1.3 0.4-1.9 0.2-0.8 0.3-1.4 0.4-2 0.2-0.7 0.4-1.4 0.5-1.9 0.1-0.8 0.3-1.4 0.4-2 0.2-0.7 0.3-1.3 0.4-1.9 0.2-0.7 0.3-1.3 0.4-1.9 0.2-0.7 0.4-1.4 0.5-2l0.1-0.3c0.1-0.5 0.2-1.1 0.3-1.6v-0.3c0.2-0.6 0.3-1.1 0.4-1.6v-0.3q0.3-0.9 0.4-1.7c0.2-0.7 0.4-1.3 0.5-1.9 0.2-0.7 0.3-1.3 0.4-2v-0.2q0.3-0.9 0.4-1.6l0.1-0.4c0.2-0.5 0.2-1.1 0.3-1.6l0.1-0.3c0.2-0.5 0.3-1.1 0.4-1.6l0.1-0.3c0.1-0.6 0.2-1.1 0.3-1.7v-0.2q0.3-0.8 0.4-1.7l0.1-0.4q0.2-0.8 0.3-1.5l0.1-0.4q0.2-0.8 0.4-1.6l0.1-0.3c0.1-0.5 0.2-1.1 0.3-1.6l0.1-0.3c0.1-0.6 0.2-1.1 0.3-1.6l0.1-0.4c0.2-0.5 0.3-1.1 0.4-1.6v-0.4c0.1-0.5 0.3-1 0.4-1.5l0.1-0.3c0.1-0.6 0.2-1.1 0.3-1.7l0.1-0.3q0.2-0.7 0.3-1.6l0.1-0.4q0.2-0.7 0.4-1.5l0.1-0.4c0.1-0.5 0.2-1 0.3-1.6l0.1-0.3c0.1-0.5 0.2-1.1 0.3-1.6l0.1-0.4c0.1-0.5 0.2-1 0.3-1.5l0.1-0.5c0.1-0.5 0.3-1 0.4-1.5l0.1-0.4c0-0.5 0.2-1 0.3-1.5l0.1-0.3c0.1-0.6 0.2-1.1 0.3-1.6l0.1-0.3c0.1-0.5 0.2-1.1 0.3-1.5l0.1-0.6c0.1-0.4 0.3-0.9 0.3-1.4l0.1-0.4c0.1-0.5 0.2-1 0.3-1.5l10.7-49.4q10.7-49.2 21.3-98.4c5.9-24.2-7.1-49.5-30.3-58.8-6-2.6-12.4-3.8-18.7-3.8-9.8 0-19.6 2.9-28.3 8.7-14.4 9.5-23 25-22.9 41.4q-1.6 50.1-3.1 100.1l-1.8 53.2c0 0.5 0 0.9 0 1.4v0.6c0 0.4 0 0.9 0 1.3v0.7c0 0.4-0.1 0.9 0 1.3v0.7c-0.1 0.4-0.1 0.8-0.1 1.3v0.6c0 0.5-0.1 0.9 0 1.4v0.6c-0.1 0.5-0.1 0.9-0.1 1.4v0.6c0 0.5-0.1 0.9 0 1.4v0.6c-0.1 0.5-0.1 0.9-0.1 1.4v0.6c0 0.4-0.1 0.9 0 1.3v0.6c-0.1 0.5-0.1 0.9-0.1 1.4v0.6c0 0.5-0.1 0.9 0 1.4v0.6c-0.1 0.5-0.1 0.9-0.1 1.4v0.6c0 0.5-0.1 0.9 0 1.4v0.5c-0.1 0.5-0.1 0.9-0.1 1.4v0.6c0 0.5-0.1 0.9 0 1.4v0.6c-0.1 0.5-0.1 0.9-0.1 1.4v0.5c0 0.5-0.1 0.9 0 1.4v0.5c0 0.5-0.1 1-0.1 1.5v0.5c0 0.5-0.1 1 0 1.4v0.6c-0.1 0.5-0.1 0.9-0.1 1.4v0.6c0 0.5 0 0.9 0 1.4v0.5c0 0.4-0.1 0.9 0 1.4v0.5c0 0.5-0.1 1-0.1 1.4v0.6c0 0.4-0.1 0.9 0 1.4v0.5c-0.1 0.5-0.1 1-0.1 1.5z"/>
		<path class="s0" d="m438 242.2c0-0.5 0-1-0.1-1.5v-0.3q0-0.8 0-1.4v-0.4c0-0.5-0.1-1-0.1-1.4v-0.5c0-0.5-0.1-0.9-0.1-1.4v-0.4c0-0.5-0.1-1-0.1-1.4v-0.5c0-0.5-0.1-0.9-0.1-1.4v-0.4q0-0.7-0.1-1.4v-0.4q0-0.7-0.1-1.5v-0.4q-2.3-44.7-4.6-89.4c-0.4-9.7-0.9-19.5-1.4-29.3-0.3-5.2-0.5-10.4-0.8-15.7-0.3-4.9-0.5-9.8-0.8-14.7-0.7-18.9-12.4-35.6-29.9-42.7-5.8-2.3-11.8-3.5-17.9-3.5-11.5 0-22.8 4.3-31.9 12.4-13.9 12.6-19.4 31.2-14.2 48.7 6.3 27.3 12.7 54.5 19.1 81.7 4.9 21 9.8 42 14.7 63 0.1 0.6 0.3 1.1 0.4 1.8q0.2 0.9 0.4 1.7 0.3 1 0.5 1.8c0.1 0.7 0.2 1.2 0.4 1.8 0.1 0.7 0.3 1.2 0.4 1.8 0.2 0.6 0.3 1.2 0.4 1.8q0.3 1 0.5 1.8 0.2 1 0.4 1.8 0.2 0.9 0.4 1.8 0.2 1 0.4 1.8 0.3 0.9 0.5 1.8 0.2 0.9 0.4 1.8 0.2 0.9 0.4 1.7 0.2 1 0.5 1.9 0.2 0.9 0.4 1.8 0.2 0.9 0.4 1.8 0.2 0.9 0.4 1.8 0.2 0.9 0.5 1.8c0.1 0.6 0.2 1.2 0.4 1.8q0.2 0.9 0.4 1.8 0.2 0.9 0.4 1.8 0.2 0.9 0.5 1.8 0.2 0.9 0.4 1.7 0.2 1 0.4 1.8 0.2 1 0.4 1.8 0.3 1 0.5 1.8 0.2 1 0.4 1.8c0.1 0.7 0.3 1.3 0.4 1.8 0.2 0.7 0.3 1.3 0.4 1.8q0.3 1 0.5 1.8 0.2 0.9 0.4 1.8 0.2 0.9 0.4 1.8 0.2 0.9 0.4 1.8 0.3 0.9 0.5 1.8 0.2 0.9 0.4 1.8 0.2 0.9 0.4 1.8 0.2 0.9 0.5 1.8 0.2 0.9 0.4 1.8 0.2 0.9 0.4 1.8c0.1 0.6 0.3 1.2 0.4 1.8 0.2 0.6 0.3 1.2 0.5 1.8q0.2 0.9 0.4 1.8 0.2 0.9 0.4 1.8 0.2 0.9 0.4 1.7 0.2 1 0.5 1.8 0.2 1 0.4 1.8 0.2 1 0.4 1.8 0.2 1 0.4 1.8c0.2 0.7 0.3 1.3 0.5 1.8q0.2 1 0.4 1.8 0.2 1 0.4 1.8 0.2 0.9 0.4 1.8 0.3 0.9 0.5 1.8 0.2 0.9 0.4 1.8 0.2 0.9 0.4 1.8 0.2 0.9 0.4 1.8 0.3 0.9 0.5 1.8 0.2 0.9 0.4 1.8 0.2 0.9 0.4 1.8 0.2 0.9 0.5 1.8c0.1 0.6 0.2 1.2 0.4 1.8q0.2 0.9 0.4 1.8 0.2 0.9 0.4 1.8c0.2 0.6 0.3 1.2 0.5 1.8 0.1 0.6 0.2 1.2 0.4 1.7 0.1 0.7 0.3 1.3 0.4 1.8q0.2 1 0.4 1.8 0.2 1 0.5 1.8c0.1 0.7 0.2 1.3 0.4 1.8 0.1 0.7 0.3 1.3 0.4 1.8 0.2 0.7 0.3 1.3 0.4 1.8 0.2 0.7 0.3 1.2 0.5 1.8 0.1 0.7 0.2 1.2 0.4 1.8 0.1 0.7 0.3 1.2 0.4 1.8 0.2 0.7 0.3 1.2 0.4 1.8 0.2 0.7 0.3 1.2 0.5 1.8 0.1 0.7 0.3 1.2 0.4 1.8 0.1 0.6 0.3 1.2 0.4 1.8 0.2 0.6 0.3 1.2 0.4 1.8 0.2 0.6 0.3 1.2 0.5 1.8 0.1 0.6 0.2 1.2 0.4 1.8 0.1 0.6 0.3 1.2 0.4 1.8 0.2 0.6 0.3 1.2 0.5 1.8 0.1 0.6 0.2 1.2 0.4 1.8 0.1 0.6 0.2 1.2 0.4 1.8 0.1 0.6 0.2 1.2 0.4 1.7 0.2 0.7 0.3 1.3 0.5 1.8 0.1 0.7 0.2 1.3 0.4 1.8 0.1 0.7 0.2 1.3 0.4 1.8 0.1 0.7 0.2 1.3 0.4 1.8 0.2 0.7 0.3 1.3 0.5 1.8 0.1 0.7 0.2 1.3 0.4 1.8 0.1 0.7 0.2 1.2 0.4 1.8 0.2 0.7 0.2 1.2 0.4 1.8 0.2 0.7 0.3 1.2 0.5 1.8 0.1 0.7 0.2 1.2 0.4 1.8 0.1 0.7 0.2 1.2 0.4 1.8 0.2 0.7 0.3 1.2 0.4 1.8 0.2 0.6 0.3 1.2 0.5 1.8 0.1 0.6 0.2 1.2 0.4 1.8 0.1 0.6 0.2 1.2 0.4 1.8 0.2 0.6 0.3 1.2 0.4 1.8 0.2 0.6 0.3 1.2 0.5 1.8 0.1 0.6 0.2 1.2 0.4 1.8 0.1 0.6 0.2 1.2 0.4 1.8 0.2 0.6 0.3 1.2 0.5 1.8 0.1 0.6 0.2 1.2 0.4 1.7 0.1 0.7 0.2 1.3 0.4 1.8 0.1 0.7 0.2 1.3 0.4 1.8 0.2 0.7 0.3 1.3 0.5 1.8 0.1 0.7 0.2 1.3 0.4 1.8 0.1 0.7 0.2 1.3 0.4 1.8 0.1 0.7 0.2 1.2 0.4 1.8 0.2 0.7 0.3 1.2 0.5 1.8 0.1 0.7 0.2 1.2 0.4 1.8 0.1 0.7 0.2 1.2 0.4 1.8 0.2 0.7 0.2 1.2 0.4 1.8 0.2 0.7 0.3 1.2 0.5 1.8 2 9.6 10 13 16.6 12 6.7-0.9 13.5-6.4 12.7-16.2 0-0.7 0-1.2-0.1-1.8 0-0.7 0-1.3-0.1-1.9 0-0.6 0-1.2-0.1-1.8 0-0.7 0-1.2-0.1-1.8 0-0.7 0-1.3-0.1-1.9 0-0.6 0-1.3-0.1-1.8 0-0.7 0-1.2-0.1-1.9 0-0.6 0-1.2-0.1-1.8 0-0.7 0-1.2-0.1-1.8 0-0.7 0-1.3-0.1-1.9 0-0.7 0-1.2-0.1-1.8 0-0.7 0-1.3-0.1-1.9 0-0.6 0-1.2-0.1-1.8 0-0.7 0-1.2-0.1-1.9 0-0.6 0-1.2-0.1-1.8 0-0.7 0-1.2 0-1.8 0-0.7 0-1.3-0.1-1.9 0-0.6 0-1.2-0.1-1.8 0-0.7 0-1.3-0.1-1.9 0-0.6 0-1.2-0.1-1.8 0-0.7 0-1.2-0.1-1.9 0-0.6 0-1.2-0.1-1.8 0-0.7 0-1.2-0.1-1.8 0-0.7 0-1.3-0.1-1.9 0-0.6 0-1.2-0.1-1.8 0-0.7 0-1.3-0.1-1.9 0-0.6 0-1.2-0.1-1.8 0-0.7 0-1.2-0.1-1.9 0-0.6 0-1.2-0.1-1.8 0-0.7 0-1.2-0.1-1.8 0-0.7 0-1.3-0.1-1.9 0-0.6 0-1.2-0.1-1.8 0-0.7 0-1.3-0.1-1.9 0-0.6 0-1.2 0-1.8 0-0.7 0-1.2-0.1-1.9 0-0.6 0-1.2-0.1-1.8 0-0.7 0-1.2-0.1-1.8 0-0.7 0-1.3-0.1-1.9 0-0.6 0-1.2-0.1-1.8 0-0.7 0-1.2-0.1-1.9 0-0.6 0-1.2-0.1-1.8 0-0.7 0-1.2-0.1-1.8 0-0.7 0-1.3-0.1-1.9 0-0.7 0-1.2-0.1-1.8 0-0.7 0-1.3-0.1-1.9 0-0.6 0-1.2-0.1-1.8 0-0.7 0-1.2-0.1-1.9 0-0.6 0-1.2-0.1-1.8 0-0.7 0-1.2-0.1-1.8 0-0.7 0-1.3-0.1-1.9 0-0.6 0-1.2-0.1-1.8 0-0.7 0-1.3-0.1-1.9 0-0.6 0-1.2-0.1-1.8 0-0.7 0-1.2 0-1.9 0-0.6 0-1.2-0.1-1.8 0-0.7 0-1.2-0.1-1.8 0-0.7 0-1.3-0.1-1.9 0-0.6 0-1.2-0.1-1.8 0-0.7 0-1.3-0.1-1.9 0-0.6 0-1.2-0.1-1.8 0-0.7-0.1-1.2-0.1-1.9 0-0.6 0-1.2-0.1-1.7 0-0.7 0-1.3-0.1-1.9 0-0.7 0-1.2-0.1-1.8 0-0.6 0-1.2-0.1-1.8 0-0.7 0-1.3-0.1-1.9 0-0.6 0-1.2-0.1-1.8 0-0.7 0-1.2-0.1-1.9 0-0.6 0-1.2-0.1-1.8 0-0.7 0-1.2-0.1-1.8 0-0.7 0-1.3-0.1-1.9 0-0.6 0-1.2 0-1.8 0-0.7-0.1-1.3-0.1-1.8 0-0.7-0.1-1.2-0.1-1.9 0-0.6-0.1-1.2-0.1-1.8 0-0.7-0.1-1.2-0.1-1.8 0-0.7-0.1-1.3-0.1-1.9 0-0.6 0-1.2-0.1-1.7 0-0.7-0.1-1.3-0.1-1.9 0-0.6 0-1.2-0.1-1.7v-0.3c0-0.5-0.1-1-0.1-1.6v-0.2c0-0.5 0-1-0.1-1.6v-0.2q0-0.9-0.1-1.7v-0.2c0-0.5 0-1.1-0.1-1.6v-0.2q0-0.8-0.1-1.6v-0.2c0-0.6 0-1.1-0.1-1.6v-0.2c0-0.6 0-1.1-0.1-1.7v-0.2c0-0.5 0-1.1-0.1-1.6v-0.2c0-0.6 0-1.1-0.1-1.7v-0.2q0-0.8-0.1-1.6v-0.2c0-0.5 0-1 0-1.5v-0.3c0-0.5-0.1-1-0.1-1.5v-0.3c0-0.6-0.1-1.1-0.1-1.5v-0.4c0-0.5-0.1-1-0.1-1.5v-0.3c0-0.6-0.1-1.1-0.1-1.7v-0.2c0-0.5-0.1-1-0.1-1.6v-0.2c0-0.6-0.1-1.1-0.1-1.7v-0.2c0-0.5-0.1-1.1-0.1-1.6v-0.2c0-0.6-0.1-1.1-0.1-1.6v-0.3c0-0.5-0.1-1-0.1-1.6v-0.2c0-0.5 0-1-0.1-1.5v-0.3c0-0.6 0-1.1-0.1-1.6v-0.3c0-0.5 0-1-0.1-1.5v-0.3c0-0.5 0-1-0.1-1.5v-0.3c0-0.6 0-1.1-0.1-1.6v-0.3c0-0.5 0-1-0.1-1.5v-0.3q0-0.8-0.1-1.5v-0.4c0-0.5 0-1-0.1-1.5v-0.3q0-0.8-0.1-1.5v-0.4c0-0.5 0-1 0-1.5v-0.3c0-0.5-0.1-1-0.1-1.5v-0.3z"/>
		<path class="s0" d="m368.3 461.7c-0.1-0.6-0.3-1.1-0.4-1.6-0.2-0.6-0.4-1-0.5-1.6-0.1-0.5-0.3-1.1-0.5-1.5-0.1-0.6-0.3-1.1-0.4-1.6-0.2-0.6-0.4-1-0.5-1.5-0.2-0.6-0.4-1.1-0.5-1.6-0.1-0.6-0.3-1-0.5-1.6-0.1-0.5-0.3-1-0.4-1.5-0.2-0.6-0.4-1.1-0.5-1.6-0.2-0.5-0.3-1-0.5-1.5-0.1-0.6-0.3-1.1-0.5-1.6-0.1-0.6-0.3-1-0.4-1.6-0.2-0.5-0.4-1-0.5-1.5-0.2-0.6-0.3-1.1-0.5-1.6-0.1-0.5-0.3-1-0.5-1.5-0.1-0.6-0.3-1.1-0.4-1.6-0.2-0.6-0.4-1-0.5-1.6-0.1-0.5-0.3-1-0.5-1.5-0.1-0.6-0.3-1.1-0.5-1.6-0.1-0.5-0.3-1-0.4-1.5-0.2-0.6-0.4-1.1-0.5-1.6-0.1-0.6-0.3-1-0.5-1.5-0.1-0.6-0.3-1.1-0.4-1.6-0.2-0.6-0.4-1-0.5-1.6-0.2-0.5-0.3-1-0.5-1.5-0.1-0.6-0.3-1.1-0.5-1.6-0.1-0.6-0.3-1-0.4-1.5-0.2-0.6-0.4-1.1-0.5-1.6-0.2-0.6-0.3-1-0.5-1.6-0.1-0.5-0.3-1-0.5-1.5-0.1-0.6-0.3-1.1-0.4-1.6-0.2-0.5-0.4-1-0.5-1.5-0.1-0.6-0.3-1.1-0.5-1.6-0.1-0.6-0.3-1-0.5-1.6-0.1-0.5-0.3-1-0.4-1.5-0.2-0.6-0.4-1.1-0.5-1.6-0.1-0.5-0.3-1-0.5-1.5-0.1-0.6-0.3-1.1-0.4-1.6-0.2-0.6-0.4-1-0.5-1.5-0.2-0.6-0.4-1.1-0.5-1.6-0.1-0.6-0.3-1-0.5-1.6-0.1-0.5-0.3-1-0.4-1.5-0.2-0.6-0.4-1.1-0.5-1.6-0.2-0.6-0.3-1-0.5-1.5-0.1-0.6-0.3-1.1-0.5-1.6-0.1-0.6-0.3-1-0.4-1.6-0.2-0.5-0.4-1-0.5-1.5-0.1-0.6-0.3-1.1-0.5-1.6-0.1-0.5-0.3-1-0.5-1.5-0.1-0.6-0.3-1.1-0.4-1.6-0.2-0.6-0.4-1-0.5-1.6-0.1-0.5-0.3-1-0.5-1.5-0.1-0.6-0.3-1.1-0.4-1.6-0.2-0.5-0.4-1-0.5-1.5-0.2-0.6-0.4-1.1-0.5-1.6-0.1-0.6-0.3-1-0.5-1.6-0.1-0.5-0.3-1-0.4-1.5-0.2-0.6-0.4-1.1-0.5-1.6-0.2-0.5-0.3-1-0.5-1.5-0.1-0.6-0.3-1.1-0.5-1.6-0.1-0.6-0.3-1-0.4-1.5-0.2-0.6-0.4-1.1-0.5-1.6-0.1-0.6-0.3-1-0.5-1.6-0.1-0.5-0.3-1-0.5-1.5-0.1-0.6-0.3-1.1-0.4-1.6-0.2-0.6-0.4-1-0.5-1.5-0.1-0.6-0.3-1.1-0.5-1.6-0.1-0.6-0.3-1-0.4-1.6-0.2-0.5-0.4-1-0.5-1.5-0.2-0.6-0.4-1.1-0.5-1.6-0.1-0.5-0.3-1-0.5-1.5-0.1-0.6-0.3-1.1-0.4-1.6-0.2-0.6-0.4-1-0.5-1.6-0.2-0.5-0.3-1-0.5-1.5-0.1-0.6-0.3-1.1-0.5-1.6-0.1-0.5-0.3-1-0.4-1.5-0.2-0.6-0.4-1.1-0.5-1.6-0.2-0.6-0.3-1-0.5-1.6-0.1-0.5-0.3-1-0.5-1.5-0.1-0.6-0.3-1-0.4-1.6-0.2-0.5-0.4-1-0.5-1.5-0.1-0.6-0.3-1.1-0.5-1.6-0.1-0.6-0.3-1-0.4-1.5-0.2-0.6-0.4-1.1-0.5-1.6-0.2-0.6-0.4-1-0.5-1.6-0.1-0.5-0.3-1-0.5-1.5-0.1-0.6-0.3-1.1-0.4-1.6-0.2-0.5-0.4-1-0.5-1.5-0.2-0.6-0.3-1.1-0.5-1.6-0.1-0.5-0.3-1-0.5-1.6-0.1-0.5-0.3-1-0.4-1.5-0.2-0.6-0.4-1.1-0.5-1.6-0.2-0.5-0.3-1-0.5-1.5-0.1-0.6-0.3-1.1-0.5-1.6-0.1-0.6-0.3-1-0.4-1.6-0.2-0.5-0.4-1-0.5-1.5-0.1-0.6-0.3-1.1-0.5-1.6-0.1-0.5-0.3-1-0.4-1.5-0.2-0.6-0.4-1.1-0.5-1.6-0.2-0.6-0.4-1-0.5-1.5-0.1-0.6-0.3-1.1-0.5-1.6-6.4-20.2-12.9-40.4-19.3-60.5-7.5-23.1-14.9-46.2-22.2-69.4-1-3-1.9-5.9-2.8-8.8-5.4-17.9-10.1-33.3-30.4-41.6-6-2.4-11.8-3.4-17.2-3.4-14.5 0-26.4 7.4-33.8 16-12.7 15.1-14.4 35.6-4.3 52.4 13.6 25.2 27.2 50.4 40.7 75.6 11.4 21 22.7 42.1 34.1 63.1q0.3 0.7 0.7 1.4c0.3 0.5 0.6 1 0.8 1.4 0.2 0.5 0.5 1 0.8 1.4 0.2 0.5 0.5 1 0.7 1.4 0.2 0.6 0.5 1 0.8 1.5 0.2 0.5 0.5 1 0.7 1.4 0.3 0.5 0.5 1 0.8 1.4 0.2 0.5 0.5 1 0.7 1.4 0.3 0.5 0.6 1 0.8 1.4 0.2 0.6 0.5 1 0.8 1.5 0.2 0.5 0.5 0.9 0.7 1.4 0.2 0.5 0.5 1 0.8 1.4 0.2 0.5 0.5 1 0.7 1.4 0.3 0.5 0.5 1 0.8 1.4 0.2 0.5 0.5 1 0.7 1.4 0.3 0.6 0.6 1 0.8 1.5 0.2 0.5 0.5 0.9 0.8 1.4 0.2 0.5 0.5 1 0.7 1.4 0.3 0.5 0.5 1 0.8 1.4 0.2 0.5 0.5 1 0.7 1.4 0.3 0.5 0.6 1 0.8 1.4 0.2 0.6 0.5 1 0.7 1.5 0.3 0.5 0.6 0.9 0.8 1.4 0.2 0.5 0.5 1 0.8 1.4 0.2 0.5 0.5 1 0.7 1.4 0.3 0.5 0.5 1 0.8 1.4 0.2 0.5 0.5 1 0.7 1.4 0.3 0.6 0.6 1 0.8 1.5 0.2 0.5 0.5 1 0.7 1.4 0.3 0.5 0.6 1 0.8 1.4 0.2 0.5 0.5 1 0.8 1.4 0.2 0.5 0.5 1 0.7 1.4 0.3 0.6 0.5 1 0.8 1.4 0.2 0.6 0.5 1 0.7 1.5 0.3 0.5 0.6 1 0.8 1.4 0.2 0.5 0.5 1 0.8 1.4 0.2 0.5 0.5 1 0.7 1.4 0.2 0.5 0.5 1 0.8 1.4 0.2 0.6 0.5 1 0.7 1.5 0.3 0.5 0.5 0.9 0.8 1.4 0.2 0.5 0.5 1 0.7 1.4 0.3 0.5 0.6 1 0.8 1.4 0.2 0.5 0.5 1 0.8 1.4 0.2 0.5 0.5 1 0.7 1.4 0.2 0.6 0.5 1 0.8 1.5 0.2 0.5 0.5 0.9 0.7 1.4 0.3 0.5 0.5 1 0.8 1.4 0.2 0.5 0.5 1 0.7 1.4 0.3 0.5 0.6 1 0.8 1.4 0.2 0.5 0.5 1 0.8 1.4 0.2 0.6 0.5 1 0.7 1.5 0.2 0.5 0.5 1 0.8 1.4 0.2 0.5 0.5 1 0.7 1.4 0.3 0.5 0.5 1 0.8 1.4 0.2 0.5 0.5 1 0.7 1.4 0.3 0.5 0.6 1 0.8 1.4 0.2 0.6 0.5 1 0.8 1.5 0.2 0.5 0.5 1 0.7 1.4 0.3 0.5 0.5 1 0.8 1.4 0.2 0.5 0.5 1 0.7 1.4 0.3 0.5 0.6 1 0.8 1.4 0.2 0.5 0.5 1 0.7 1.4 0.3 0.6 0.6 1 0.8 1.5 0.2 0.5 0.5 1 0.8 1.4 0.2 0.5 0.5 1 0.7 1.4 0.3 0.5 0.5 1 0.8 1.4 0.2 0.5 0.5 1 0.7 1.4 0.3 0.6 0.6 1 0.8 1.5 0.2 0.5 0.5 0.9 0.7 1.4 0.3 0.5 0.6 1 0.8 1.4 0.2 0.5 0.5 1 0.8 1.4 0.2 0.5 0.5 1 0.7 1.4 0.3 0.5 0.5 1 0.8 1.4 0.2 0.6 0.5 1 0.7 1.5 0.3 0.5 0.6 0.9 0.8 1.4 0.2 0.5 0.5 1 0.7 1.4 0.3 0.5 0.6 1 0.8 1.4 0.2 0.5 0.5 1 0.8 1.4 0.2 0.5 0.5 1 0.7 1.4 0.3 0.6 0.5 1 0.8 1.5 0.2 0.5 0.5 0.9 0.7 1.4 0.3 0.5 0.6 1 0.8 1.4 0.2 0.5 0.5 1 0.8 1.4 0.2 0.5 0.5 1 0.7 1.4 0.2 0.5 0.5 1 0.8 1.4 0.2 0.6 0.5 1 0.7 1.5 0.3 0.5 0.5 1 0.8 1.4 0.2 0.5 0.5 1 0.7 1.4 0.3 0.5 0.6 1 0.8 1.4 0.2 0.5 0.5 1 0.8 1.4 0.2 0.6 0.5 1 0.7 1.4 0.2 0.6 0.5 1 0.8 1.5 0.2 0.5 0.5 1 0.7 1.4 0.3 0.5 0.5 1 0.8 1.4 0.2 0.5 0.5 1 0.7 1.4 0.3 0.5 0.6 1 0.8 1.4 0.2 0.6 0.5 1 0.8 1.5 0.2 0.5 0.5 0.9 0.7 1.4 0.2 0.5 0.5 1 0.8 1.4 0.2 0.5 0.5 1 0.7 1.4 0.3 0.5 0.5 1 0.8 1.4 0.2 0.5 0.5 1 0.7 1.4 4.4 8.7 13.1 9.9 19.2 7.3 6.1-2.6 11.3-9.6 8.1-18.7-0.1-0.6-0.3-1.1-0.5-1.6z"/>
		<path class="s0" d="m296.2 500q-0.3-0.6-0.7-1.1-0.3-0.7-0.7-1.2-0.3-0.6-0.7-1.1-0.4-0.7-0.7-1.2-0.4-0.6-0.7-1.1-0.4-0.6-0.7-1.1-0.4-0.7-0.7-1.2-0.4-0.6-0.8-1.1-0.3-0.6-0.7-1.1-0.3-0.7-0.7-1.2-0.3-0.7-0.7-1.2-0.3-0.6-0.7-1.1-0.3-0.6-0.7-1.1c-0.2-0.4-0.5-0.8-0.8-1.2q-0.3-0.6-0.7-1.1-0.3-0.7-0.7-1.2-0.3-0.6-0.7-1.1-0.3-0.6-0.7-1.1-0.4-0.7-0.7-1.2-0.4-0.6-0.7-1.1-0.4-0.6-0.7-1.1-0.4-0.7-0.7-1.2-0.4-0.6-0.8-1.2-0.3-0.6-0.7-1.1-0.3-0.6-0.7-1.1-0.3-0.7-0.7-1.2-0.3-0.6-0.7-1.1-0.3-0.6-0.7-1.1-0.4-0.7-0.7-1.2-0.4-0.6-0.7-1.1-0.4-0.6-0.7-1.1-0.4-0.7-0.7-1.2-0.4-0.6-0.8-1.1-0.3-0.7-0.7-1.2-0.3-0.6-0.7-1.1-0.3-0.6-0.7-1.1-0.3-0.7-0.7-1.2-0.3-0.6-0.7-1.1-0.4-0.6-0.7-1.1-0.4-0.7-0.7-1.2-0.4-0.6-0.7-1.2-0.4-0.6-0.7-1.1-0.4-0.6-0.8-1.1-0.3-0.7-0.7-1.2-0.3-0.6-0.7-1.1c-0.2-0.4-0.4-0.8-0.7-1.2-0.3-0.4-0.5-0.8-0.7-1.1q-0.4-0.6-0.8-1.1c-0.2-0.5-0.5-0.8-0.7-1.2q-0.3-0.6-0.7-1.2-0.3-0.6-0.7-1.1-0.3-0.6-0.7-1.1-0.3-0.7-0.7-1.2l-0.1-0.2q-0.3-0.5-0.6-0.9l-0.1-0.2q-0.3-0.5-0.6-1c-0.3-0.4-0.5-0.8-0.7-1.1-0.3-0.5-0.5-0.8-0.7-1.1-0.3-0.5-0.6-0.8-0.8-1.2q-0.3-0.6-0.7-1.2-0.3-0.6-0.7-1.1-0.3-0.6-0.7-1.1l-0.1-0.3q-0.3-0.4-0.6-0.9l-0.1-0.2q-0.3-0.5-0.6-0.9l-0.1-0.2q-0.3-0.5-0.6-1l-0.1-0.2q-0.3-0.5-0.6-1l-0.2-0.2q-0.2-0.5-0.5-0.9l-0.2-0.2q-0.3-0.5-0.5-0.9l-0.1-0.2q-0.3-0.5-0.7-1c-0.2-0.5-0.4-0.8-0.7-1.1q-0.3-0.7-0.7-1.2l-0.1-0.2q-0.3-0.5-0.6-0.9l-0.1-0.2q-0.3-0.5-0.6-1l-0.1-0.2q-0.3-0.5-0.6-1l-0.1-0.2q-0.3-0.5-0.6-0.9l-0.2-0.3q-0.2-0.5-0.5-0.9c-24.1-38.1-48.3-76.1-72.4-114.1-4.6-7.3-9.2-14.6-13.8-21.9-5.2-8.9-12.1-18.7-24.1-23.2-5.8-2.3-11.3-3.2-16.4-3.2-15.8 0-27.9 9.3-34.4 19.2-9.3 14.2-11.2 36.1 5.6 52.8l10.7 11.1c34.9 36.6 69.8 73 104.7 109.6l0.2 0.1c0.2 0.3 0.5 0.6 0.7 0.8 0.4 0.4 0.7 0.7 1 1 0.3 0.4 0.6 0.7 0.9 1l0.2 0.2c0.2 0.3 0.5 0.5 0.7 0.8 0.4 0.4 0.7 0.7 1 1 0.3 0.4 0.6 0.7 0.9 1 0.4 0.3 0.7 0.7 1 1 0.3 0.3 0.6 0.7 0.9 0.9l0.1 0.2c0.3 0.3 0.6 0.6 0.8 0.8 0.4 0.4 0.7 0.7 1 1 0.4 0.4 0.6 0.7 0.9 1 0.4 0.4 0.7 0.7 1 1 0.4 0.4 0.6 0.7 0.9 1 0.4 0.4 0.7 0.7 1 1 0.3 0.4 0.6 0.7 0.9 1 0.4 0.3 0.6 0.7 1 1l0.1 0.1c0.3 0.3 0.5 0.6 0.8 0.8 0.4 0.4 0.6 0.7 1 1 0.3 0.3 0.6 0.7 0.9 1 0.3 0.4 0.6 0.7 1 1 0.3 0.3 0.6 0.7 0.9 1 0.3 0.4 0.6 0.7 1 1 0.3 0.4 0.6 0.6 0.9 1 0.3 0.3 0.6 0.6 1 1 0.3 0.3 0.6 0.6 0.9 1 0.4 0.3 0.7 0.7 0.9 1 0.4 0.3 0.7 0.6 1 0.9 0.3 0.4 0.6 0.7 0.9 1 0.4 0.4 0.7 0.7 1 1 0.3 0.4 0.6 0.7 0.9 1 0.4 0.4 0.6 0.7 1 1 0.3 0.3 0.6 0.7 0.9 1 0.4 0.4 0.6 0.7 1 1 0.3 0.3 0.6 0.7 0.9 1 0.4 0.4 0.6 0.7 1 1 0.3 0.4 0.6 0.6 0.9 1 0.3 0.3 0.6 0.6 1 1 0.3 0.3 0.6 0.6 0.9 1 0.3 0.3 0.6 0.6 1 1 0.3 0.3 0.6 0.6 0.9 0.9 0.3 0.4 0.6 0.7 0.9 1 0.4 0.4 0.7 0.7 1 1 0.3 0.4 0.6 0.7 0.9 1 0.4 0.4 0.7 0.7 1 1 0.3 0.4 0.6 0.7 0.9 1 0.4 0.4 0.7 0.7 1 1 0.3 0.4 0.6 0.7 0.9 1 0.4 0.4 0.6 0.6 1 1 0.3 0.4 0.6 0.6 0.9 1 0.4 0.4 0.6 0.6 1 1 0.3 0.3 0.6 0.6 0.9 1 0.3 0.3 0.6 0.6 1 0.9 0.3 0.4 0.6 0.7 0.9 1 0.3 0.4 0.6 0.7 1 1 0.3 0.4 0.6 0.7 0.9 1 0.3 0.4 0.6 0.7 1 1 0.3 0.4 0.6 0.7 0.9 1 0.3 0.4 0.6 0.7 0.9 1 0.4 0.4 0.7 0.7 1 1 0.3 0.4 0.6 0.7 0.9 1 0.4 0.4 0.7 0.6 1 1 0.3 0.4 0.6 0.6 0.9 1 0.4 0.3 0.6 0.6 1 1 0.3 0.3 0.6 0.6 0.9 1 0.4 0.3 0.6 0.6 1 0.9 0.3 0.4 0.6 0.7 0.9 1 0.4 0.4 0.6 0.7 1 1 0.3 0.4 0.6 0.7 0.9 1 0.3 0.4 0.6 0.7 1 1 0.3 0.4 0.6 0.7 0.9 1 0.3 0.4 0.6 0.7 1 1 0.3 0.4 0.6 0.7 0.9 1 0.3 0.4 0.6 0.7 0.9 1 0.4 0.4 0.7 0.7 1 1 0.3 0.4 0.6 0.6 0.9 1 0.4 0.3 0.7 0.6 1 1 0.3 0.3 0.6 0.7 0.9 1 6.7 7 14.9 6 20.3 1.8 5.2-4.1 8.3-12.1 3-20q-0.3-0.7-0.7-1.2z"/>
		<path class="s0" d="m236.8 555.9c-0.3-0.3-0.5-0.5-0.8-0.8-0.3-0.2-0.5-0.5-0.8-0.7-0.3-0.3-0.5-0.5-0.8-0.8-0.3-0.3-0.5-0.5-0.8-0.7-0.3-0.3-0.5-0.5-0.8-0.8-0.2-0.3-0.5-0.5-0.8-0.7-0.3-0.3-0.5-0.6-0.8-0.8-0.3-0.3-0.5-0.5-0.8-0.7-0.3-0.3-0.5-0.6-0.7-0.8-0.3-0.3-0.6-0.5-0.8-0.8-0.3-0.2-0.5-0.4-0.7-0.6-0.4-0.4-0.6-0.6-0.9-0.8-0.3-0.3-0.5-0.5-0.8-0.8-0.2-0.3-0.5-0.5-0.8-0.7q-0.3-0.4-0.7-0.7c-0.3-0.3-0.5-0.6-0.8-0.8-0.3-0.3-0.5-0.5-0.7-0.7-0.3-0.3-0.6-0.5-0.7-0.7-0.4-0.3-0.7-0.6-0.9-0.8-0.3-0.3-0.6-0.5-0.9-0.8-0.2-0.3-0.5-0.5-0.8-0.7-0.2-0.3-0.4-0.5-0.6-0.6l-0.1-0.2c-0.3-0.3-0.5-0.5-0.8-0.7-0.3-0.3-0.5-0.5-0.8-0.8-0.2-0.2-0.4-0.4-0.6-0.6l-0.1-0.1c0 0-0.5-0.4-0.6-0.6l-0.2-0.2c0 0-0.5-0.4-0.7-0.6-0.4-0.4-0.6-0.6-0.9-0.8-0.2-0.3-0.4-0.5-0.6-0.6l-0.2-0.2c0 0-0.4-0.4-0.6-0.6-0.4-0.4-0.6-0.7-0.9-0.9-0.3-0.2-0.5-0.4-0.7-0.6-0.4-0.4-0.6-0.6-0.8-0.8q-0.4-0.4-0.8-0.7c-0.3-0.4-0.6-0.5-0.8-0.8-0.3-0.3-0.5-0.5-0.8-0.7-0.3-0.3-0.5-0.5-0.8-0.7-0.3-0.4-0.6-0.6-0.8-0.8-0.3-0.3-0.5-0.5-0.7-0.8-23.6-22.2-47-44.3-70.4-66.4-12.8-12-25.5-24.1-38.3-36.1q-5.4-5.1-10.8-10.2l-1.7-1.5c-4.8-4.8-9.9-9.8-17-12.5-5.5-2-10.7-2.9-15.6-2.9-16.3 0-28.6 10.3-34.4 22.8-7.3 15.7-5.1 38.3 17 50.9l25.4 14.9c40.4 23.9 80.9 47.8 121.4 71.7l0.3 0.1c0 0 0.4 0.3 0.5 0.4l0.4 0.2c0 0 0.4 0.3 0.6 0.3l0.3 0.2c0 0 0.4 0.3 0.6 0.4l0.3 0.2c0 0 0.4 0.3 0.6 0.4l0.3 0.2c0 0 0.5 0.2 0.7 0.3l0.3 0.2c0 0 0.4 0.3 0.6 0.4l0.3 0.2c0 0 0.4 0.2 0.6 0.4l0.3 0.2c0 0 0.4 0.2 0.6 0.3l0.3 0.2c0 0 0.4 0.3 0.6 0.4l0.3 0.2c0 0 0.4 0.2 0.6 0.4l0.3 0.2c0 0 0.4 0.3 0.6 0.3l0.3 0.2c0 0 0.4 0.3 0.7 0.4l0.3 0.2c0 0 0.4 0.2 0.6 0.4l0.3 0.2c0 0 0.4 0.3 0.6 0.3l0.3 0.2c0 0 0.4 0.3 0.7 0.4l0.3 0.2c0 0 0.4 0.3 0.6 0.4l0.3 0.2c0 0 0.4 0.2 0.6 0.3l0.3 0.2c0 0 0.4 0.3 0.7 0.4l0.2 0.2c0 0 0.4 0.2 0.7 0.3l0.2 0.2c0 0 0.4 0.3 0.7 0.4l0.3 0.1c0 0 0.4 0.3 0.6 0.4l0.2 0.1c0 0 0.5 0.3 0.7 0.4l0.2 0.1c0 0 0.5 0.3 0.7 0.4l0.3 0.2c0 0 0.4 0.2 0.7 0.3l0.2 0.2c0 0 0.5 0.3 0.7 0.4l0.3 0.1c0 0 0.4 0.3 0.7 0.4l0.2 0.2c0 0 0.5 0.3 0.7 0.4l0.3 0.2c0 0 0.4 0.3 0.6 0.4l0.3 0.1c0 0 0.5 0.3 0.7 0.4l0.3 0.2c0 0 0.4 0.3 0.6 0.4l0.3 0.2c0 0 0.4 0.3 0.7 0.4l0.3 0.1c0 0 0.4 0.3 0.6 0.4l0.3 0.1c0 0 0.4 0.3 0.6 0.4 0.4 0.2 0.6 0.4 0.9 0.6q0.6 0.3 0.9 0.5 0.6 0.4 0.9 0.6 0.6 0.3 0.9 0.6c0.4 0.2 0.7 0.3 1 0.5 0.4 0.3 0.6 0.4 0.9 0.6l0.2 0.1q0.4 0.2 0.7 0.4l0.2 0.1q0.4 0.2 0.7 0.4c8.1 4.8 15.7 1.6 19.6-3.7 4-5.3 4.9-13.5-1.9-19.8q-0.4-0.4-0.7-0.7z"/>
		<path class="s0" d="m194.4 625.2c-4.4-2.5-8.8-5-13.3-7.5-10.9-6.2-21.8-12.4-32.8-18.6-15.6-8.8-31.2-17.6-46.8-26.5-10.3-5.8-20.5-11.6-30.8-17.4-2.4-1.3-4.8-2.7-7.2-4.1-4.1-2.4-8.4-4.9-12.8-6.9-18.5-7.4-39.6 1.5-47.1 20-3.9 9.5-3.5 20.2 1.2 29.6 4.7 9.3 13 16.1 22.9 18.7l20.8 5.4c20.9 5.3 41.6 10.7 62.5 16 16.8 4.3 33.7 8.6 50.5 13q9 2.3 17.9 4.6c1.3 0.3 2.6 0.6 3.9 1 7.4 2.2 15.2-1.5 18-8.6 2.9-7.2-0.1-15.2-7-18.7z"/>
		<path class="s0" d="m227.2 932.2l-9.7 0.6c-14 0.2-22.1 10.2-24 19.9-1.7 9 1.1 21.5 14.8 27.3 6.8 2.7 14 2.4 20.4-1 6.7-3.5 11.4-9.7 13.1-17.1l3-9.7c3-7.6-0.8-16.1-8.2-19.1-1.9-0.8-3.7-1.1-5.7-1.1-1.2 0-2.5 0.1-3.7 0.2z"/>
		<path class="s0" d="m204.3 874.5c-0.8-5.4-4.2-9.7-9-11.6-1.9-0.8-3.7-1-5.6-1-1.4 0-2.7 0.1-4.1 0.2-0.5 0-1 0.1-1.5 0.2l-31.5 2.3c-10.8 0.4-20.4 7.1-24.5 17.1-4.8 12.1-1.1 24.7 9.4 32.3 10.4 7.6 23.6 7.2 33.6-1l27.9-24.8c4.1-3.3 6.1-8.4 5.3-13.8z"/>
		<path class="s0" d="m181.7 803.9c1.8-4.3 1.3-9.2-1.2-13.3-2.6-4.2-6.9-6.8-11.5-7l-62.4-5.1q-3.8-0.6-7.4-0.7c-13.6 0-24.8 7-29.6 19-4.8 11.6-2 24.3 7.1 33.1 9 8.8 21.8 11.1 33.2 6l60-22.5c6.2-2 10-5 11.7-9.5z"/>
		<path class="s0" d="m181 722.6c1.5-3.7 1.5-7.7-0.1-11.3-1.6-3.7-4.4-6.4-8.1-8-3.4-1-7-2.1-10.4-3.1-2.2-0.6-4.4-1.3-6.6-2l-80.8-23.8q-4.8-1.4-9.6-2.8c-3.2-1-6.5-1.4-9.6-1.4-13.3 0-25.5 7.9-30.7 20.8-4.5 10.1-3 21.9 3.7 31.5 6.8 9.6 17.5 14.8 28.6 14.1l94-4.1c4.6-0.2 9.2-0.3 13.8-0.6 5.9 0.3 13-2 15.8-9.3z"/>
		<path class="s0" d="m294.6 987.1c-5.3-2.1-11.2-2.1-16.5 0.1-5.3 2.3-9.4 6.4-11.6 11.8-2.2 5.3-2.1 11.2 0.2 16.5 2.2 5.3 6.4 9.4 11.7 11.6 13.9 5 24.3-2.7 28.1-12 3.7-9.2 1.6-22-11.9-28z"/>
	</g>
</svg>